G04 ================== begin FILE IDENTIFICATION RECORD ==================*
G04 Layout Name:  F:/RLC_Meter_Project/RCL_Meter_Brd/RCL_Meter.brd*
G04 Film Name:    GND_Copper*
G04 File Format:  Gerber RS274X*
G04 File Origin:  Cadence Allegro 17.2-P019*
G04 Origin Date:  Sat Jul 18 23:45:58 2020*
G04 *
G04 Layer:  VIA CLASS/GND PLANE*
G04 Layer:  PIN/GND PLANE*
G04 Layer:  ETCH/GND PLANE*
G04 *
G04 Offset:    (0.0000 0.0000)*
G04 Mirror:    No*
G04 Mode:      Positive*
G04 Rotation:  0*
G04 FullContactRelief:  No*
G04 UndefLineWidth:     0.1000*
G04 ================== end FILE IDENTIFICATION RECORD ====================*
%FSLAX25Y25*MOIN*%
%IR0*IPPOS*OFA0.00000B0.00000*MIA0B0*SFA1.00000B1.00000*%
%ADD15C,.03*%
%ADD14O,.149606X.200787*%
%ADD21C,.055118*%
%ADD18C,.118701*%
%ADD16C,.045*%
%ADD13C,.063*%
%ADD10C,.05*%
%ADD17C,.065*%
%ADD12C,.055*%
%ADD20C,.055039*%
%ADD22C,.07*%
%ADD11C,.066*%
%ADD19R,.055039X.055039*%
%ADD23C,.003543*%
%ADD34R,.400016X.400016*%
%ADD28C,.078764*%
%ADD30C,.040016*%
%ADD24C,.080764*%
%ADD31C,.070882*%
%ADD29O,.045756X.140244*%
%ADD26C,.045764*%
%ADD27C,.060764*%
%ADD32C,.085764*%
%ADD33C,.106567*%
%ADD25C,.070764*%
G75*
%LPD*%
G75*
G36*
G01X569685Y572047D02*
Y649213D01*
X543701D01*
Y694488D01*
X598228D01*
Y789331D01*
X742598D01*
Y774252D01*
X799166D01*
X806890Y767047D01*
Y572047D01*
X569685D01*
G37*
G36*
G01X821260Y429134D02*
Y851969D01*
X817362D01*
Y789370D01*
X767795D01*
Y811890D01*
X663425D01*
X644488Y830827D01*
Y962992D01*
X880825Y962953D01*
X880835Y940512D01*
X882764D01*
X882756Y959521D01*
Y962992D01*
X1165354D01*
Y809449D01*
X1073268D01*
Y806614D01*
X1165354D01*
Y429134D01*
X821260D01*
G37*
%LPC*%
G75*
G36*
G01X906614Y874414D02*
Y759331D01*
X963425D01*
Y755472D01*
X902992D01*
Y871378D01*
X878982D01*
X878971Y894252D01*
X882751D01*
X882760Y874370D01*
X906614Y874414D01*
G37*
G36*
G01X1041339Y809449D02*
Y806614D01*
X994882D01*
Y755472D01*
X992835D01*
Y809449D01*
X1041339D01*
G37*
G36*
G01X1105909Y480319D02*
Y485823D01*
G02X1106697Y486611I788J0D01*
G01X1112201D01*
G02X1112989Y485823I0J-788D01*
G01Y480319D01*
G02X1112201Y479531I-788J0D01*
G01X1106697D01*
G02X1105909Y480319I0J788D01*
G37*
G36*
G01X1024019D02*
Y485823D01*
G02X1024807Y486611I788J0D01*
G01X1030311D01*
G02X1031099Y485823I0J-788D01*
G01Y480319D01*
G02X1030311Y479531I-788J0D01*
G01X1024807D01*
G02X1024019Y480319I0J788D01*
G37*
G36*
G01X941735D02*
Y485823D01*
G02X942524Y486611I788J0D01*
G01X948028D01*
G02X948816Y485823I0J-788D01*
G01Y480319D01*
G02X948028Y479531I-788J0D01*
G01X942524D01*
G02X941735Y480319I0J788D01*
G37*
G36*
G01X855043Y480398D02*
Y485902D01*
G02X855831Y486690I788J0D01*
G01X861335D01*
G02X862123Y485902I0J-788D01*
G01Y480398D01*
G02X861335Y479609I-788J0D01*
G01X855831D01*
G02X855043Y480398I0J788D01*
G37*
G36*
G01X898622Y801168D02*
G02X896334Y798880I-2288J0D01*
G01X892397D01*
G02X890109Y801168I0J2288D01*
G01Y810617D01*
G02X892397Y812905I2288J0D01*
G01X896334D01*
G02X898622Y810617I0J-2288D01*
G01Y801168D01*
G37*
G36*
G01X855665Y800955D02*
G02X853377Y798667I-2288J0D01*
G01X849440D01*
G02X847152Y800955I0J2288D01*
G01Y810404D01*
G02X849440Y812691I2288J0D01*
G01X853377D01*
G02X855665Y810404I0J-2288D01*
G01Y800955D01*
G37*
G36*
G01X876713Y800828D02*
G02X874425Y798541I-2288J0D01*
G01X870488D01*
G02X868200Y800828I0J2288D01*
G01Y810277D01*
G02X870488Y812565I2288J0D01*
G01X874425D01*
G02X876713Y810277I0J-2288D01*
G01Y800828D01*
G37*
G36*
G01X834584Y800561D02*
G02X832296Y798274I-2288J0D01*
G01X828359D01*
G02X826071Y800561I0J2288D01*
G01Y810010D01*
G02X828359Y812298I2288J0D01*
G01X832296D01*
G02X834584Y810010I0J-2288D01*
G01Y800561D01*
G37*
G36*
G01X1060689Y898583D02*
G02X1058546Y898343I-846J-2126D01*
G03X1058468Y899044I-226J330D01*
G02X1060611Y899284I846J2126D01*
G03X1060689Y898583I226J-330D01*
G37*
G36*
G01X911594Y764146D02*
G02X909396Y764216I-1163J-1971D01*
G03X909419Y764917I-181J357D01*
G02X911616Y764847I1163J1971D01*
G03X911594Y764146I181J-357D01*
G37*
G36*
G01X1120816Y736607D02*
G02X1120775Y734248I1940J-1213D01*
G03X1120090Y734259I-346J-200D01*
G02X1120130Y736618I-1940J1213D01*
G03X1120816Y736607I346J200D01*
G37*
G36*
G01X1003575Y532370D02*
G02X1001678Y532404I-986J-2065D01*
G03X1001691Y533132I-159J367D01*
G02X1003589Y533098I986J2065D01*
G03X1003575Y532370I159J-367D01*
G37*
G54D34*
X1139154Y519074D03*
X1137838Y935929D03*
G54D28*
X713228Y682795D03*
X713386Y656811D03*
G54D30*
X887244Y941654D03*
G54D24*
X754291Y766535D03*
X704291D03*
X684291D03*
Y826535D03*
X714291Y836535D03*
X724291Y826535D03*
X754291Y836535D03*
X1158189Y825039D03*
Y835039D03*
Y845039D03*
Y855039D03*
Y865039D03*
Y885039D03*
Y895039D03*
G54D31*
X926693Y932067D03*
X936535D03*
Y939941D03*
G54D29*
X990030Y910014D03*
G54D26*
X771811Y676535D03*
X780591Y642126D03*
X799173Y636890D03*
X826181Y872244D03*
X826929Y864764D03*
X828898Y584961D03*
X832598Y696969D03*
X838504Y535787D03*
X844055Y584961D03*
X845118Y872244D03*
X853268Y543307D03*
X853819Y676969D03*
X857480Y672402D03*
X857992Y681496D03*
X861929Y677126D03*
X866102Y681535D03*
X871654Y553858D03*
X873504Y629724D03*
X874803Y658307D03*
X880787Y696969D03*
X880984Y658386D03*
X884872Y674340D03*
X886417Y653701D03*
X886654Y648110D03*
X888937Y563780D03*
X891417Y658110D03*
X891457Y651614D03*
X891563Y864776D03*
X894202Y928554D03*
X910039Y841772D03*
X910472Y798740D03*
X916915Y899503D03*
X927195Y653888D03*
X945433Y773228D03*
Y780787D03*
X945512Y788465D03*
X945709Y809882D03*
X945866Y844606D03*
X952756Y577520D03*
X964291Y592677D03*
X971811Y604685D03*
X985827Y885827D03*
Y893701D03*
X989369Y666300D03*
X990039Y934134D03*
X991000Y894067D03*
X996417Y604567D03*
X1001024Y544291D03*
X1001811Y839764D03*
X1001969Y849213D03*
X1010787Y509882D03*
X1011299Y501850D03*
X1012057Y695954D03*
X1013898Y560472D03*
X1017486Y931170D03*
X1018583Y537953D03*
X1023774Y931170D03*
X1024685Y536339D03*
X1031071Y930988D03*
X1034843Y545630D03*
X1036220Y852795D03*
Y935433D03*
X1038346Y907008D03*
X1045079Y523780D03*
X1046378Y804724D03*
X1047205Y574173D03*
X1052087Y796181D03*
X1052126Y568937D03*
X1053307Y651063D03*
X1053898Y800906D03*
X1058307Y806614D03*
X1060000Y680787D03*
X1060276Y686575D03*
X1061969Y553858D03*
X1064055Y624685D03*
X1066929Y916929D03*
X1068228Y558583D03*
X1070866Y597402D03*
X1073996Y581043D03*
X1075315Y548937D03*
X1078150Y651024D03*
X1079528Y916535D03*
X1082126Y558268D03*
X1087323Y674094D03*
X1088386Y706732D03*
X1095591Y875906D03*
X1095630Y917559D03*
X1098898Y679764D03*
X1099685Y674094D03*
X1102283Y597047D03*
X1102756Y734291D03*
X1103228Y796260D03*
X1104409Y907008D03*
X1106100Y780604D03*
X1106457Y682992D03*
X1133504Y665315D03*
X1138583Y762953D03*
X1142008Y688228D03*
G54D27*
X777089Y706280D03*
X777168Y731988D03*
X679964Y885217D03*
X680160Y911024D03*
X702839Y885217D03*
X702970Y911024D03*
X741315Y885217D03*
X741380Y911024D03*
X764191Y885217D03*
Y911024D03*
G54D32*
X1029764Y692950D03*
G54D33*
X907992Y950768D03*
X955236D03*
G54D25*
X748523Y578150D03*
X658871Y766574D03*
X639271D03*
X605059Y668327D03*
X801417Y874428D03*
X809715Y884388D03*
X886575Y622520D03*
X909488Y596339D03*
X921024Y717480D03*
X940354Y668661D03*
%LPD*%
G75*
G54D10*
X507791Y449393D03*
X507718Y942642D03*
X532548Y753188D03*
Y780788D03*
X563948Y753188D03*
Y780788D03*
X1139154Y519074D03*
X1137838Y935929D03*
G54D11*
X517059Y873287D03*
X603059D03*
G54D20*
X868583Y483150D03*
X955276Y483071D03*
X1037559D03*
X1119449D03*
G54D12*
X518748Y715807D03*
Y810295D03*
X585374Y668327D03*
X577748Y715807D03*
Y810295D03*
X605059Y668327D03*
X639271Y766574D03*
X658871D03*
X748523Y578150D03*
X768209D03*
X809715Y884388D03*
X801417Y874428D03*
X867210Y910951D03*
X886575Y622520D03*
X909488Y596339D03*
X921024Y717480D03*
X940354Y668661D03*
X1147840Y547189D03*
G54D21*
X936535Y932067D03*
X926693D03*
Y939941D03*
X936535D03*
G54D22*
X1029764Y673350D03*
Y692950D03*
G54D13*
X530433Y841791D03*
X567933D03*
X648386Y656811D03*
X648228Y682795D03*
X713386Y656811D03*
X713228Y682795D03*
G54D23*
G01X887244Y939453D02*
Y941654D01*
G01D02*
Y943854D01*
G01X885043Y941654D02*
X887244D01*
G01D02*
X889445D01*
G54D14*
X554547Y936122D03*
X594547D03*
G54D15*
X565197Y682480D03*
X646457Y842052D03*
Y837052D03*
Y832052D03*
X650118Y828626D03*
X654094Y825118D03*
X646457Y862052D03*
Y857052D03*
Y852052D03*
Y847052D03*
Y887052D03*
Y882052D03*
Y877052D03*
Y872052D03*
Y867052D03*
Y912052D03*
Y907052D03*
Y902052D03*
Y897052D03*
Y892052D03*
Y932052D03*
Y927052D03*
Y922052D03*
Y917052D03*
Y957052D03*
Y952052D03*
Y947052D03*
Y942052D03*
Y937052D03*
X654495Y961022D03*
X649495Y961022D03*
X661063Y817563D03*
X665039Y814059D03*
X670512Y813981D03*
X675591Y813784D03*
X657520Y820989D03*
X679495Y961017D03*
X674495Y961018D03*
X669495Y961019D03*
X664495Y961020D03*
X659495Y961021D03*
X681349Y814016D03*
X686939Y813701D03*
X692333Y813898D03*
X698396Y814016D03*
X699495Y961014D03*
X694495Y961015D03*
X689495Y961016D03*
X684495Y961017D03*
X723228Y616535D03*
X703790Y814331D03*
X708790D03*
X713790D03*
X718790D03*
X723790D03*
X715551Y927953D03*
X724495Y961010D03*
X719495Y961011D03*
X714495Y961011D03*
X709495Y961012D03*
X704495Y961013D03*
X730483Y665472D03*
X728790Y814331D03*
X733790D03*
X739331Y814268D03*
X744451Y814370D03*
X749451D03*
X727677Y927953D03*
X749495Y961006D03*
X744495Y961007D03*
X739495Y961007D03*
X734495Y961008D03*
X729495Y961009D03*
X758268Y616929D03*
X754724Y643701D03*
X771816Y643341D03*
X771811Y676535D03*
X755354Y731614D03*
X770239Y791181D03*
X754451Y814370D03*
X759451D03*
X764451D03*
X769806Y801496D03*
X769495Y961002D03*
X764495Y961003D03*
X759495Y961004D03*
X754495Y961005D03*
X780591Y642126D03*
X774884Y791339D03*
X779884D03*
X784884D03*
X789884D03*
X794884D03*
X785472Y845945D03*
X794567Y849331D03*
X777795Y927953D03*
X794495Y960998D03*
X789495Y960999D03*
X784495Y961000D03*
X779495Y961001D03*
X774495Y961002D03*
X799409Y624213D03*
X799173Y636890D03*
X800906Y642835D03*
X801457Y763307D03*
X799884Y791339D03*
X804884D03*
X809884D03*
X814884D03*
X815394Y796313D03*
Y801313D03*
Y806313D03*
Y811313D03*
Y816313D03*
Y821313D03*
Y826313D03*
Y831313D03*
Y836313D03*
Y841313D03*
Y846313D03*
X819495Y960994D03*
X814495Y960995D03*
X809495Y960996D03*
X804495Y960996D03*
X799495Y960997D03*
X823228Y435787D03*
Y431103D03*
X828228D03*
X833228D03*
X838228D03*
X843228D03*
X823228Y445445D03*
Y440445D03*
Y465445D03*
Y460445D03*
Y455445D03*
Y450445D03*
X840945Y448819D03*
X823228Y490445D03*
Y485445D03*
Y480445D03*
Y475445D03*
Y470445D03*
X840945Y488189D03*
X823228Y515445D03*
Y510445D03*
Y505445D03*
Y500445D03*
Y495445D03*
Y535445D03*
Y530445D03*
Y525445D03*
Y520445D03*
X840945Y527559D03*
X838504Y535787D03*
X823228Y560445D03*
Y555445D03*
Y550445D03*
Y545445D03*
Y540445D03*
Y585445D03*
Y580445D03*
Y575445D03*
Y570445D03*
Y565445D03*
X840945Y566930D03*
X828898Y584961D03*
X823228Y605445D03*
Y600445D03*
Y595445D03*
Y590445D03*
X840945Y606300D03*
X823228Y630445D03*
Y625445D03*
Y620445D03*
Y615445D03*
Y610445D03*
Y655445D03*
Y650445D03*
Y645445D03*
Y640445D03*
Y635445D03*
X840945Y645670D03*
X823228Y675445D03*
Y670445D03*
Y665445D03*
Y660445D03*
Y700445D03*
Y695445D03*
Y690445D03*
Y685445D03*
Y680445D03*
X840945Y685040D03*
X832598Y696969D03*
X823228Y725445D03*
Y720445D03*
Y715445D03*
Y710445D03*
Y705445D03*
X840945Y724410D03*
X823228Y745445D03*
Y740445D03*
Y735445D03*
Y730445D03*
Y770445D03*
Y765445D03*
Y760445D03*
Y755445D03*
Y750445D03*
X840945Y763780D03*
X823228Y795445D03*
Y790445D03*
Y785445D03*
Y780445D03*
Y775445D03*
Y815445D03*
Y810445D03*
Y805445D03*
Y800445D03*
X840945Y803150D03*
X832296Y810010D03*
X828359D03*
X832296Y805286D03*
X828359D03*
X832296Y800561D03*
X828359D03*
X823228Y840445D03*
X825984Y825591D03*
X823228Y850445D03*
Y845445D03*
X826929Y864764D03*
X826181Y872244D03*
X839495Y960991D03*
X834495Y960992D03*
X829495Y960993D03*
X824495Y960993D03*
X848228Y431103D03*
X853228D03*
X858228D03*
X863228D03*
X860630Y468504D03*
X863050Y486950D03*
X855020Y489449D03*
X863337Y494074D03*
X862145Y498930D03*
Y503930D03*
Y508930D03*
Y513930D03*
X855020Y514449D03*
Y509449D03*
Y504449D03*
Y499449D03*
Y494449D03*
X853268Y543307D03*
X844055Y584961D03*
X860630Y665355D03*
X857480Y672402D03*
X853819Y676969D03*
X861929Y677126D03*
X866102Y681535D03*
X857992Y681496D03*
X860630Y704725D03*
Y744095D03*
Y783465D03*
X853377Y810404D03*
X849440D03*
X853377Y805679D03*
X849440D03*
X853377Y800955D03*
X849440D03*
X848071Y825984D03*
X860630Y822835D03*
X845118Y872244D03*
X864495Y960987D03*
X859495Y960987D03*
X854495Y960988D03*
X849495Y960989D03*
X844495Y960990D03*
X868228Y431103D03*
X873228D03*
X878228D03*
X883228D03*
X888228D03*
X880315Y448819D03*
X873050Y486950D03*
X878050D03*
X883050D03*
X888050D03*
X888337Y494074D03*
X883337D03*
X878337D03*
X873337D03*
X868337D03*
X876726Y557420D03*
X886726D03*
X881726D03*
X886654Y550296D03*
X881654D03*
X876654D03*
X871654Y553858D03*
X888937Y563780D03*
X878701Y607913D03*
X873504Y629724D03*
X886417Y653701D03*
X886654Y648110D03*
X874803Y658307D03*
X880984Y658386D03*
X884872Y674340D03*
X880315Y685040D03*
X880787Y696969D03*
X880315Y724410D03*
Y763780D03*
Y803150D03*
X874425Y810277D03*
X870488D03*
X874425Y805553D03*
X870488D03*
X874425Y800828D03*
X870488D03*
X869211Y826024D03*
X885918Y877357D03*
X887244Y941654D03*
X884725Y958059D03*
X884727Y953059D03*
X884729Y948059D03*
X878865Y943543D03*
X878863Y948543D03*
X878861Y953543D03*
X878859Y958543D03*
X888752Y961023D03*
X874495Y960985D03*
X869495Y960986D03*
X893228Y431103D03*
X898228D03*
X903228D03*
X908228D03*
X913228D03*
X900000Y468504D03*
X893050Y486950D03*
X908937D03*
X893337Y494074D03*
X912221D03*
X907221D03*
X900000Y507874D03*
X913343Y526950D03*
X908343D03*
X903343D03*
X898508Y528226D03*
X894973Y531761D03*
X893770Y536614D03*
X911941Y534074D03*
X906941D03*
X901996Y534813D03*
X900894Y539690D03*
X893770Y541614D03*
Y561614D03*
X901726Y557420D03*
X900894Y544690D03*
X906726Y557420D03*
X891726D03*
X911726D03*
X911654Y550296D03*
X906654D03*
X901654D03*
X891654D03*
X893770Y566614D03*
Y571614D03*
Y576614D03*
Y581614D03*
X900894Y574690D03*
Y579690D03*
Y564690D03*
Y569690D03*
Y589690D03*
X904661Y592979D03*
X893770Y586614D03*
Y591614D03*
X900000Y625985D03*
X891457Y651614D03*
X900000Y665355D03*
X891417Y658110D03*
X900000Y704725D03*
Y744095D03*
X910431Y762175D03*
X910581Y766888D03*
X900618Y769963D03*
Y764963D03*
X910264Y753074D03*
X904909Y753152D03*
X900618Y754963D03*
Y759963D03*
X910589Y772173D03*
X900618Y774963D03*
X900933Y780869D03*
Y785869D03*
Y790869D03*
Y795869D03*
X910904Y793078D03*
Y788078D03*
Y783078D03*
X910589Y777173D03*
X910472Y798740D03*
X900933Y800869D03*
Y805869D03*
Y810869D03*
Y815869D03*
X910983Y819299D03*
Y814299D03*
X910668Y808393D03*
Y803393D03*
X892397Y801168D03*
X896334D03*
X892397Y805893D03*
X896334D03*
X892397Y810617D03*
X896334D03*
X910039Y841772D03*
X900933Y825869D03*
Y820869D03*
X910983Y824299D03*
X909178Y850406D03*
X909493Y861312D03*
X909178Y855406D03*
X909493Y866312D03*
X891563Y864776D03*
X899215Y881893D03*
X908122Y881744D03*
X909493Y871312D03*
X896824Y877042D03*
X906824D03*
X901824D03*
X890918Y877357D03*
X894202Y928554D03*
X898752Y961023D03*
X893752D03*
X918228Y431103D03*
X923228D03*
X928228D03*
X933228D03*
X919685Y448819D03*
X913937Y486950D03*
X918937D03*
X923937D03*
X928937D03*
X933937D03*
X932221Y494074D03*
X927221D03*
X922221D03*
X917221D03*
X918343Y526950D03*
X926941Y534074D03*
X931941D03*
X921941D03*
X916941D03*
X936147Y531370D03*
X921726Y557420D03*
X926726D03*
X931726D03*
X936726D03*
X916726D03*
X936654Y550296D03*
X931654D03*
X926654D03*
X921654D03*
X916654D03*
X919685Y566930D03*
X927195Y653888D03*
X917343Y711890D03*
X935411Y720767D03*
X930411D03*
X935224Y713643D03*
X930324Y712648D03*
X926788Y709113D03*
X919685Y724410D03*
X915076Y753256D03*
X935076D03*
X930076D03*
X925076D03*
X920076D03*
X915621Y762057D03*
X920621D03*
X925621D03*
X930621D03*
X935621D03*
X916915Y899503D03*
X933752Y961023D03*
X928752D03*
X923752D03*
X918752D03*
X938228Y431103D03*
X943228D03*
X948228D03*
X953228D03*
X958228D03*
X939370Y468504D03*
X959055Y448819D03*
X948838Y488071D03*
X938470Y484839D03*
X959055Y488189D03*
X948838Y493071D03*
Y498071D03*
Y503071D03*
Y508071D03*
Y513071D03*
X941713Y516269D03*
Y511269D03*
Y506269D03*
Y501269D03*
Y496269D03*
X937221Y494074D03*
X940236Y528493D03*
X959055Y527559D03*
X941726Y557420D03*
X946726D03*
X951726D03*
X956726D03*
X956654Y550296D03*
X951654D03*
X946654D03*
X941654D03*
X959055Y566930D03*
X952756Y577520D03*
X959055Y606300D03*
X939370Y586615D03*
X959055Y685040D03*
X945224Y713643D03*
X955062Y714906D03*
X940411Y720767D03*
X945411D03*
X950411D03*
X954158Y724077D03*
X940224Y713643D03*
X950224D03*
X958597Y718442D03*
X939370Y704725D03*
X957693Y727613D03*
X939370Y744095D03*
X945433Y773228D03*
X960076Y753256D03*
X955076D03*
X950076D03*
X945076D03*
X940076D03*
X940621Y762057D03*
X945621D03*
X945433Y780787D03*
X945512Y788465D03*
X945709Y809882D03*
X945866Y844606D03*
X943752Y961023D03*
X938752D03*
X963228Y431103D03*
X968228D03*
X973228D03*
X978228D03*
X983228D03*
X978740Y507874D03*
X961726Y557420D03*
X966726D03*
X971726D03*
X976726D03*
X981654Y550296D03*
X976654D03*
X971654D03*
X966654D03*
X961654D03*
X971811Y604685D03*
X964291Y592677D03*
X978740Y625985D03*
X970334Y678054D03*
X978740Y665355D03*
X975413Y688554D03*
Y698554D03*
Y693554D03*
X968288Y697616D03*
Y702616D03*
Y692616D03*
Y687616D03*
Y682616D03*
X975413Y703554D03*
Y708554D03*
Y713554D03*
X977503Y718095D03*
X981039Y721631D03*
X968288Y707616D03*
Y712616D03*
X968291Y717616D03*
X971091Y721758D03*
X974626Y725294D03*
X965668Y725513D03*
X962133Y721977D03*
X961229Y731148D03*
X964765Y734684D03*
X964824Y739683D03*
Y744683D03*
Y749683D03*
X971948Y748228D03*
X978162Y728829D03*
X981697Y732365D03*
X971948Y743228D03*
Y738228D03*
X971948Y733228D03*
X969204Y729048D03*
X978740Y744095D03*
X964824Y769683D03*
Y764683D03*
Y754683D03*
Y759683D03*
X971948Y753228D03*
Y763228D03*
Y758228D03*
X980717Y817120D03*
X970906Y934134D03*
X978752Y961023D03*
X973752D03*
X968752D03*
X963752D03*
X988228Y431103D03*
X993228D03*
X998228D03*
X1003228D03*
X998425Y448819D03*
Y488189D03*
X1002589Y530306D03*
X1002677Y535197D03*
X986726Y557420D03*
X991726D03*
X996726D03*
X1001654Y550296D03*
X996654D03*
X991654D03*
X986654D03*
X1001024Y544291D03*
X998425Y566930D03*
X996417Y604567D03*
X989369Y666300D03*
X998425Y685040D03*
X984574Y725167D03*
X998425Y724410D03*
X991357Y747586D03*
X991257Y732587D03*
X988110Y728702D03*
X991357Y737586D03*
Y742586D03*
X984233Y736674D03*
Y741674D03*
Y746674D03*
X991357Y762586D03*
Y757586D03*
Y752586D03*
Y767586D03*
Y772586D03*
X984233Y751674D03*
Y756674D03*
Y761674D03*
Y766674D03*
Y771674D03*
X997059Y754131D03*
Y769131D03*
Y764131D03*
Y759131D03*
X991357Y777586D03*
Y782586D03*
X984233Y781674D03*
Y776674D03*
X991357Y792586D03*
Y787586D03*
X997059Y774131D03*
Y779131D03*
Y794131D03*
Y789131D03*
Y784131D03*
X991357Y802586D03*
X984233Y806674D03*
X985456Y815526D03*
X988991Y811991D03*
X991357Y807586D03*
Y797586D03*
X1002123Y804161D03*
X997123D03*
X997059Y799131D03*
X1001136Y811920D03*
X1006136D03*
X996136D03*
X1001811Y839764D03*
X1001969Y849213D03*
X985827Y885827D03*
X990030Y905289D03*
Y910014D03*
X985827Y893701D03*
X991000Y894067D03*
X990039Y934134D03*
X990030Y914738D03*
X1003752Y961023D03*
X998752D03*
X993752D03*
X988752D03*
X983752D03*
X1008228Y431103D03*
X1013228D03*
X1018228D03*
X1023228D03*
X1028228D03*
X1018110Y468504D03*
X1023997Y491207D03*
X1027469Y515737D03*
X1023997Y496207D03*
X1011299Y501850D03*
X1010787Y509882D03*
X1024685Y536339D03*
X1018583Y537953D03*
X1026726Y557420D03*
X1013898Y560472D03*
X1018110Y586615D03*
Y625985D03*
Y665355D03*
X1012057Y695954D03*
X1018110Y744095D03*
Y783465D03*
X1027123Y804161D03*
X1022123D03*
X1017123D03*
X1012123D03*
X1007123D03*
X1016136Y811920D03*
X1011136D03*
X1021924Y811802D03*
X1026924D03*
X1017486Y931170D03*
X1023774D03*
X1028752Y961023D03*
X1023752D03*
X1018752D03*
X1013752D03*
X1008752D03*
X1033228Y431103D03*
X1038228D03*
X1043228D03*
X1048228D03*
X1053228D03*
X1037795Y448819D03*
Y488189D03*
X1041909Y513300D03*
X1036911Y513444D03*
X1031121Y493071D03*
X1035239Y506320D03*
X1040237Y506463D03*
X1045237Y506478D03*
X1049285Y509412D03*
X1052188Y513483D03*
X1045361Y531918D03*
Y516918D03*
X1052198Y518483D03*
Y528483D03*
X1045079Y523780D03*
X1031726Y557420D03*
X1036726D03*
X1046654Y550296D03*
X1041654D03*
X1034843Y545630D03*
X1052047Y563780D03*
X1052126Y568937D03*
X1047205Y574173D03*
X1053307Y651063D03*
X1042126Y695276D03*
X1037795Y724410D03*
Y763780D03*
X1052087Y796181D03*
X1042123Y804161D03*
X1037123D03*
X1032123D03*
X1041924Y811802D03*
X1036924D03*
X1031924D03*
X1046378Y804724D03*
X1044882Y852598D03*
X1036220Y852795D03*
X1038346Y907008D03*
X1036220Y935433D03*
X1031071Y930988D03*
X1048752Y961023D03*
X1043752D03*
X1038752D03*
X1033752D03*
X1058228Y431103D03*
X1063228D03*
X1068228D03*
X1073228D03*
X1057480Y468504D03*
Y507874D03*
X1075251Y532580D03*
X1065251D03*
X1060251D03*
X1055251D03*
X1068228Y558583D03*
X1075315Y548937D03*
X1061969Y553858D03*
X1061299Y586063D03*
X1073996Y581043D03*
X1070866Y597402D03*
X1064055Y624685D03*
X1073268Y679213D03*
Y672913D03*
X1060276Y686575D03*
X1060000Y680787D03*
X1075844Y805551D03*
X1071299Y808156D03*
X1075089Y811417D03*
X1053898Y800906D03*
X1058307Y806614D03*
X1059843Y896457D03*
X1059315Y901170D03*
X1066929Y916929D03*
X1073752Y961023D03*
X1068752D03*
X1063752D03*
X1058752D03*
X1053752D03*
X1078228Y431103D03*
X1083228D03*
X1088228D03*
X1093228D03*
X1098228D03*
X1096850Y468504D03*
X1077165Y448819D03*
Y488189D03*
X1083369Y515754D03*
X1088369D03*
X1093369D03*
X1098369D03*
X1096850Y507874D03*
X1100251Y532580D03*
X1095251D03*
X1090251D03*
X1085251D03*
X1080251D03*
X1092244Y539704D03*
X1097244D03*
X1099923Y522878D03*
X1094923D03*
X1089923D03*
X1084923D03*
X1077165Y527559D03*
X1096850Y547244D03*
X1082126Y558268D03*
X1096850Y625985D03*
X1078425Y646300D03*
X1078150Y651024D03*
X1079449Y679213D03*
X1079173Y673189D03*
X1087323Y674094D03*
X1099685D03*
X1098898Y679764D03*
X1077165Y724410D03*
X1088386Y706732D03*
X1099458Y747836D03*
X1096850Y744095D03*
X1099351Y757835D03*
Y762835D03*
Y752835D03*
X1077165Y763780D03*
X1095844Y805551D03*
X1090844D03*
X1085844D03*
X1080844D03*
X1080089Y811417D03*
X1085089D03*
X1090089D03*
X1095089D03*
X1100089D03*
X1095591Y875906D03*
X1095630Y917559D03*
X1079528Y916535D03*
X1098752Y961023D03*
X1093752D03*
X1088752D03*
X1083752D03*
X1078752D03*
X1103228Y431103D03*
X1108228D03*
X1113228D03*
X1118228D03*
X1123228D03*
X1116535Y448819D03*
X1105887Y489859D03*
X1113011Y488071D03*
X1111967Y515117D03*
X1103040Y513969D03*
X1105887Y509859D03*
Y504859D03*
Y499859D03*
Y494859D03*
X1113011Y493071D03*
Y498071D03*
Y503071D03*
Y508071D03*
X1110251Y532580D03*
X1105251D03*
X1102244Y539704D03*
X1107244D03*
X1113770Y535977D03*
X1117046Y539646D03*
X1108432Y518652D03*
X1104871Y522163D03*
X1116535Y527559D03*
X1120960Y543209D03*
X1111462Y543783D03*
X1115824Y548618D03*
X1119911Y552429D03*
X1123534Y556228D03*
X1116535Y566930D03*
Y606300D03*
X1102283Y597047D03*
X1116535Y645670D03*
X1106772Y674291D03*
X1103268Y678661D03*
X1106457Y682992D03*
X1105433Y705551D03*
X1102756Y734291D03*
X1122756Y735394D03*
X1118150Y735472D03*
X1106476Y763941D03*
Y758941D03*
X1116535Y763780D03*
X1103228Y796260D03*
X1106100Y780604D03*
X1120844Y805551D03*
X1115844D03*
X1110844D03*
X1105844D03*
X1100844D03*
X1105089Y811417D03*
X1110089D03*
X1115089D03*
X1120089D03*
X1104409Y907008D03*
X1118752Y961023D03*
X1113752D03*
X1108752D03*
X1103752D03*
X1128228Y431103D03*
X1133228D03*
X1138228D03*
X1143228D03*
X1136220Y468504D03*
X1128650Y550537D03*
X1136052Y558765D03*
X1124974Y546658D03*
X1132598Y554625D03*
X1127042Y560004D03*
X1137076Y563607D03*
Y583607D03*
Y568607D03*
Y573607D03*
Y578607D03*
X1129951Y563512D03*
Y568512D03*
Y573512D03*
Y578512D03*
Y583512D03*
X1137076Y598607D03*
Y603607D03*
Y608607D03*
Y593607D03*
X1129951Y588512D03*
Y593512D03*
Y598512D03*
Y603512D03*
Y608512D03*
X1137008Y588583D03*
X1137076Y628607D03*
X1129951Y613512D03*
Y618512D03*
Y623512D03*
Y628512D03*
X1137076Y623607D03*
Y613607D03*
Y618607D03*
X1129951Y633512D03*
Y638512D03*
Y643512D03*
Y648512D03*
X1137076Y653607D03*
X1129951Y653512D03*
X1137076Y648607D03*
Y633607D03*
Y643607D03*
Y638607D03*
X1138257Y673607D03*
Y669001D03*
X1137076Y658607D03*
X1138257Y664001D03*
X1129951Y658512D03*
X1129164Y663512D03*
X1138178Y678607D03*
X1133504Y665315D03*
X1142008Y688228D03*
X1138583Y762953D03*
X1136220Y783465D03*
X1144860Y804646D03*
X1139860D03*
X1134860D03*
X1129860D03*
X1124860D03*
X1125089Y811417D03*
X1130089D03*
X1135089D03*
X1140089D03*
X1145089D03*
X1143752Y961023D03*
X1138752D03*
X1133752D03*
X1128752D03*
X1123752D03*
X1148228Y431103D03*
X1153228D03*
X1158228D03*
X1163228D03*
X1163385Y436100D03*
Y441100D03*
Y446100D03*
Y451100D03*
Y456100D03*
Y461100D03*
Y466100D03*
X1155906Y448819D03*
X1163385Y471100D03*
Y476100D03*
Y481100D03*
Y486100D03*
Y491100D03*
X1155906Y488189D03*
X1163385Y496100D03*
Y501100D03*
Y506100D03*
Y511100D03*
Y516100D03*
Y521100D03*
Y526100D03*
Y531100D03*
Y536100D03*
Y541100D03*
Y546100D03*
Y551100D03*
Y556100D03*
Y561100D03*
Y566100D03*
Y571100D03*
Y576100D03*
Y581100D03*
Y586100D03*
X1155906Y566930D03*
X1163385Y591100D03*
Y596100D03*
Y601100D03*
Y606100D03*
X1155906Y606300D03*
X1163385Y611100D03*
Y616100D03*
Y621100D03*
Y626100D03*
Y631100D03*
Y636100D03*
Y641100D03*
Y646100D03*
Y651100D03*
Y656100D03*
X1155906Y645670D03*
X1163385Y661100D03*
Y666100D03*
Y671100D03*
Y676100D03*
Y681100D03*
Y686100D03*
Y691100D03*
Y696100D03*
Y701100D03*
X1155906Y685040D03*
X1163385Y706100D03*
Y711100D03*
Y716100D03*
Y721100D03*
Y726100D03*
X1155906Y724410D03*
X1163385Y731100D03*
Y736100D03*
Y741100D03*
Y746100D03*
Y751100D03*
Y756100D03*
Y761100D03*
Y766100D03*
Y771100D03*
X1155906Y763780D03*
X1163385Y776100D03*
Y781100D03*
Y786100D03*
Y791100D03*
Y796100D03*
Y801100D03*
X1159860Y804646D03*
X1154860D03*
X1149860D03*
X1150089Y811417D03*
X1155089D03*
X1160089D03*
X1163385Y815177D03*
Y837428D03*
Y842428D03*
Y827428D03*
Y832428D03*
Y820177D03*
Y857428D03*
Y862428D03*
Y847428D03*
Y852428D03*
Y887428D03*
Y873655D03*
Y878655D03*
Y892428D03*
Y904145D03*
Y909145D03*
Y914145D03*
Y919145D03*
Y924145D03*
Y929145D03*
Y934145D03*
Y939145D03*
Y944145D03*
Y949145D03*
Y954145D03*
Y959145D03*
X1158752Y961023D03*
X1153752D03*
X1148752D03*
G54D16*
X672164Y885217D03*
X679964D03*
X672360Y911024D03*
X680160D03*
X702839Y885217D03*
X702970Y911024D03*
X710639Y885217D03*
X710770Y911024D03*
X733515Y885217D03*
X741315D03*
X733580Y911024D03*
X741380D03*
X769289Y706280D03*
X769368Y731988D03*
X764191Y885217D03*
X771991D03*
X764191Y911024D03*
X771991D03*
X777089Y706280D03*
X777168Y731988D03*
G54D17*
X704291Y766535D03*
X684291D03*
X704291Y826535D03*
X694291Y836535D03*
X684291Y826535D03*
X724291D03*
X714291Y836535D03*
X734291Y766535D03*
X744291Y826535D03*
X734291Y836535D03*
X754291Y766535D03*
Y836535D03*
X1158189Y825039D03*
Y835039D03*
Y845039D03*
Y855039D03*
Y865039D03*
Y875039D03*
Y885039D03*
Y895039D03*
G54D18*
X838583Y463150D03*
X878583D03*
X925276Y463071D03*
X965276D03*
X1007559D03*
X1047559D03*
X1089449D03*
X1129449D03*
G54D19*
X858583Y483150D03*
X945276Y483071D03*
X1027559D03*
X1109449D03*
M02*
