G04 ================== begin FILE IDENTIFICATION RECORD ==================*
G04 Layout Name:  F:/RLC_Meter_Project/RCL_Meter_Brd/RCL_Meter.brd*
G04 Film Name:    Top_Solder_Mask*
G04 File Format:  Gerber RS274X*
G04 File Origin:  Cadence Allegro 17.2-P019*
G04 Origin Date:  Sat Jul 18 23:45:58 2020*
G04 *
G04 Layer:  VIA CLASS/SOLDERMASK_TOP*
G04 Layer:  PIN/SOLDERMASK_TOP*
G04 Layer:  PACKAGE GEOMETRY/SOLDERMASK_TOP*
G04 Layer:  BOARD GEOMETRY/SOLDERMASK_TOP*
G04 *
G04 Offset:    (0.0000 0.0000)*
G04 Mirror:    No*
G04 Mode:      Positive*
G04 Rotation:  0*
G04 FullContactRelief:  No*
G04 UndefLineWidth:     0.1000*
G04 ================== end FILE IDENTIFICATION RECORD ====================*
%FSLAX25Y25*MOIN*%
%IR0*IPPOS*OFA0.00000B0.00000*MIA0B0*SFA1.00000B1.00000*%
%ADD40R,.019685X.03937*%
%ADD53R,.03937X.019685*%
%ADD48R,.043307X.015748*%
%ADD31R,.035433X.043307*%
%ADD42R,.051181X.027559*%
%ADD56R,.023622X.062992*%
%ADD45R,.062992X.023622*%
%ADD44R,.066535X.029134*%
%ADD30R,.04X.034*%
%ADD50R,.034X.04*%
%ADD17C,.018*%
%ADD46R,.02X.064*%
%ADD33R,.05X.034*%
%ADD49R,.034X.05*%
%ADD38R,.064X.02*%
%ADD51R,.07X.022*%
%ADD55R,.022X.07*%
%AMMACRO52*
4,1,40,-.01378,.025591,
-.01378,-.025591,
-.01366,-.026958,
-.013305,-.028284,
-.012725,-.029528,
-.011937,-.030652,
-.010967,-.031622,
-.009843,-.03241,
-.008599,-.03299,
-.007273,-.033345,
-.005906,-.033465,
.005906,-.033465,
.007273,-.033345,
.008599,-.03299,
.009843,-.03241,
.010967,-.031622,
.011937,-.030652,
.012725,-.029528,
.013305,-.028284,
.01366,-.026958,
.01378,-.025591,
.01378,.025591,
.01366,.026958,
.013305,.028284,
.012725,.029528,
.011937,.030652,
.010967,.031622,
.009843,.03241,
.008599,.03299,
.007273,.033345,
.005906,.033465,
-.005906,.033465,
-.007273,.033345,
-.008599,.03299,
-.009843,.03241,
-.010967,.031622,
-.011937,.030652,
-.012725,.029528,
-.013305,.028284,
-.01366,.026958,
-.01378,.025591,
0.0*
%
%ADD52MACRO52*%
%ADD16O,.15748X.208661*%
%ADD12R,.066929X.043307*%
%ADD47R,.228346X.086614*%
%ADD41O,.153543X.212598*%
%ADD24R,.023622X.035433*%
%ADD43C,.062992*%
%ADD27R,.035433X.023622*%
%ADD34C,.118701*%
%ADD15C,.063*%
%ADD11C,.095*%
%ADD54C,.1*%
%ADD21C,.06*%
%ADD19R,.094488X.094488*%
%ADD57C,.068976*%
%ADD13C,.075*%
%ADD10C,.3*%
%ADD35R,.05X.05*%
%ADD18R,.076X.12*%
%ADD39C,.055039*%
%ADD25R,.09X.26*%
%ADD14C,.07*%
%ADD20R,.054X.042*%
%ADD28R,.042X.054*%
%ADD26R,.255X.26*%
%ADD36R,.055039X.055039*%
%ADD32R,.022X.025*%
%ADD22R,.032X.038*%
%ADD23R,.038X.032*%
%AMMACRO37*
4,1,40,.01378,-.025591,
.01378,.025591,
.01366,.026958,
.013305,.028284,
.012725,.029528,
.011937,.030652,
.010967,.031622,
.009843,.03241,
.008599,.03299,
.007273,.033345,
.005906,.033465,
-.005906,.033465,
-.007273,.033345,
-.008599,.03299,
-.009843,.03241,
-.010967,.031622,
-.011937,.030652,
-.012725,.029528,
-.013305,.028284,
-.01366,.026958,
-.01378,.025591,
-.01378,-.025591,
-.01366,-.026958,
-.013305,-.028284,
-.012725,-.029528,
-.011937,-.030652,
-.010967,-.031622,
-.009843,-.03241,
-.008599,-.03299,
-.007273,-.033345,
-.005906,-.033465,
.005906,-.033465,
.007273,-.033345,
.008599,-.03299,
.009843,-.03241,
.010967,-.031622,
.011937,-.030652,
.012725,-.029528,
.013305,-.028284,
.01366,-.026958,
.01378,-.025591,
0.0*
%
%ADD37MACRO37*%
%AMMACRO29*
4,1,40,-.025591,-.01378,
.025591,-.01378,
.026958,-.01366,
.028284,-.013305,
.029528,-.012725,
.030652,-.011937,
.031622,-.010967,
.03241,-.009843,
.03299,-.008599,
.033345,-.007273,
.033465,-.005906,
.033465,.005906,
.033345,.007273,
.03299,.008599,
.03241,.009843,
.031622,.010967,
.030652,.011937,
.029528,.012725,
.028284,.013305,
.026958,.01366,
.025591,.01378,
-.025591,.01378,
-.026958,.01366,
-.028284,.013305,
-.029528,.012725,
-.030652,.011937,
-.031622,.010967,
-.03241,.009843,
-.03299,.008599,
-.033345,.007273,
-.033465,.005906,
-.033465,-.005906,
-.033345,-.007273,
-.03299,-.008599,
-.03241,-.009843,
-.031622,-.010967,
-.030652,-.011937,
-.029528,-.012725,
-.028284,-.013305,
-.026958,-.01366,
-.025591,-.01378,
0.0*
%
%ADD29MACRO29*%
G75*
%LPD*%
G75*
G36*
G01X790508Y836887D02*
Y839787D01*
X785808D01*
Y841987D01*
X783208D01*
Y839687D01*
X778608D01*
Y834487D01*
X779608D01*
Y832187D01*
X782108D01*
Y834387D01*
X787108D01*
Y832187D01*
X789608D01*
Y834487D01*
X790508D01*
Y836887D01*
G37*
G54D10*
X507791Y449393D03*
X507718Y942642D03*
X1139154Y519074D03*
X1137838Y935929D03*
G54D20*
X670906Y864210D03*
Y853010D03*
X717633D03*
Y864210D03*
X733876D03*
Y853010D03*
X755551Y698513D03*
Y687313D03*
X775945Y745758D03*
Y756958D03*
X780603Y853010D03*
Y864210D03*
X934646Y513809D03*
X925472Y513731D03*
X934646Y525009D03*
X925472Y524931D03*
X994055Y530306D03*
Y541506D03*
X1027559Y842038D03*
Y853238D03*
G54D11*
X517059Y873287D03*
X603059D03*
X704291Y766535D03*
X684291D03*
X704291Y826535D03*
X694291Y836535D03*
X684291Y826535D03*
X724291D03*
X714291Y836535D03*
X734291Y766535D03*
X744291Y826535D03*
X734291Y836535D03*
X754291Y766535D03*
Y836535D03*
G54D21*
X672164Y885217D03*
X679964D03*
X672360Y911024D03*
X680160D03*
X702839Y885217D03*
X702970Y911024D03*
X710639Y885217D03*
X710770Y911024D03*
X733515Y885217D03*
X741315D03*
X733580Y911024D03*
X741380D03*
X769289Y706280D03*
X769368Y731988D03*
X764191Y885217D03*
X771991D03*
X764191Y911024D03*
X771991D03*
X777089Y706280D03*
X777168Y731988D03*
X809715Y884388D03*
X801417Y874428D03*
X867210Y910951D03*
X886575Y622520D03*
X909488Y596339D03*
X921024Y717480D03*
X940354Y668661D03*
X1147840Y547189D03*
G54D12*
X532264Y662461D03*
Y678602D03*
X554783D03*
Y662461D03*
G54D30*
X788858Y668327D03*
Y675727D03*
X1079528Y903268D03*
Y910668D03*
G54D22*
X676516Y929547D03*
X682116D03*
X702913Y927953D03*
X708513D03*
X730807Y618406D03*
X736407D03*
X731004Y626713D03*
X736604D03*
X736811Y649961D03*
X731211D03*
X731083Y642028D03*
X736683D03*
X735394Y927953D03*
X740994D03*
X765728D03*
X771328D03*
X788130Y632224D03*
X793730D03*
X793642Y624626D03*
X788042D03*
X793583Y617303D03*
X787983D03*
X792825Y648445D03*
X779094Y648799D03*
X773494D03*
X788327Y639783D03*
X793927D03*
X792795Y656201D03*
X773524Y656654D03*
X779124D03*
X778071Y810709D03*
X772471D03*
X793996Y810571D03*
X788396D03*
X778268Y818819D03*
X772668D03*
X780413Y802618D03*
X786013D03*
X788524Y818720D03*
X794124D03*
X788414Y827134D03*
X794014D03*
X798425Y648445D03*
X798395Y656201D03*
X802106Y746870D03*
X796506D03*
X801969Y755669D03*
X796369D03*
X832561Y819423D03*
X826961D03*
X852992Y550906D03*
X858592D03*
X860699Y619724D03*
X860709Y629094D03*
X853691Y819423D03*
X848091D03*
X863494Y944350D03*
X866299Y619724D03*
X866309Y629094D03*
X871614Y610984D03*
X866014D03*
X874821Y819423D03*
X869221D03*
X880453Y899528D03*
X886053D03*
X869094Y944350D03*
X903937Y490512D03*
X898337D03*
X891732Y596614D03*
X897332D03*
X902835Y611693D03*
X897235D03*
X912077Y620945D03*
X897165Y620906D03*
X902765D03*
X890827Y633425D03*
X896427D03*
X895951Y819423D03*
X890351D03*
X917677Y620945D03*
X924843Y788386D03*
X919243D03*
X958691Y585157D03*
X958652Y577520D03*
X958701Y570000D03*
X954085Y808189D03*
X958622Y837205D03*
X953022D03*
X964291Y585157D03*
X964252Y577520D03*
X964301Y570000D03*
X978928Y604685D03*
X979055Y596142D03*
X980157Y689449D03*
X959685Y808189D03*
X974409Y885827D03*
X980009D03*
X979921Y893701D03*
X974321D03*
X979921Y901575D03*
X974321D03*
X984528Y604685D03*
X984655Y596142D03*
X985757Y689449D03*
X993150D03*
X998750D03*
X1006457Y689331D03*
X1012057D03*
X1012126Y681614D03*
X1006526D03*
X1014961Y839764D03*
X1009361D03*
X1014961Y849213D03*
X1009361D03*
X1046772Y542992D03*
X1041172D03*
X1046811Y621496D03*
X1041211D03*
X1041142Y629843D03*
X1046742D03*
X1049715Y644213D03*
X1071339Y519016D03*
X1070866Y605591D03*
X1055315Y644213D03*
X1060866Y654213D03*
X1066466D03*
X1070591Y644252D03*
X1064991D03*
X1060748Y662717D03*
X1066348D03*
X1060748Y670984D03*
X1066348D03*
X1066870Y875906D03*
X1072470D03*
X1066870Y885906D03*
X1072470D03*
X1072047Y894094D03*
X1066447D03*
X1076939Y519016D03*
X1076466Y605591D03*
X1095039Y707480D03*
X1097156Y740079D03*
X1095866Y790827D03*
X1089370Y885906D03*
X1083770D03*
X1089370Y875906D03*
X1083770D03*
X1102283Y604409D03*
X1107883D03*
X1100639Y707480D03*
X1119961Y704331D03*
X1114361D03*
X1119961Y712205D03*
X1114361D03*
X1114291Y720079D03*
X1119891D03*
X1102756Y740079D03*
X1114134Y728110D03*
X1119734D03*
X1101466Y790827D03*
X1127913Y672598D03*
X1133513D03*
X1127795Y688425D03*
X1133395D03*
X1127835Y680433D03*
X1133435D03*
X1133307Y696063D03*
X1127707D03*
X1127559Y720433D03*
X1133159D03*
X1127677Y712323D03*
X1133277D03*
X1133268Y704331D03*
X1127668D03*
X1127559Y728031D03*
X1133159D03*
X1133150Y762953D03*
X1127550D03*
G54D13*
X518748Y715807D03*
Y810295D03*
X585374Y668327D03*
X577748Y715807D03*
Y810295D03*
X605059Y668327D03*
X639271Y766574D03*
X658871D03*
X748523Y578150D03*
X768209D03*
G54D31*
X788307Y769956D03*
X778307D03*
Y795556D03*
X788307D03*
G54D40*
X873348Y644046D03*
X870748D03*
X868148D03*
Y652646D03*
X870748D03*
X873348D03*
G54D23*
X671496Y938228D03*
Y943828D03*
X681988Y938110D03*
Y943710D03*
X755354Y724232D03*
Y718632D03*
X781299Y670335D03*
Y664735D03*
X773839Y670354D03*
Y664754D03*
X798465Y737224D03*
Y731624D03*
X797647Y840273D03*
Y834673D03*
X833291Y853563D03*
Y847963D03*
X858583Y519331D03*
Y524931D03*
X851102Y584961D03*
Y579361D03*
X860669Y602087D03*
Y596487D03*
X854198Y853563D03*
Y847963D03*
X881575Y563780D03*
Y569380D03*
X886496Y606063D03*
X868583Y602165D03*
Y596565D03*
X876614Y602165D03*
Y596565D03*
X886496Y611663D03*
X875105Y853563D03*
Y847963D03*
X887244Y934154D03*
Y928554D03*
X891654Y668740D03*
Y674340D03*
X903937Y685039D03*
Y690639D03*
X912677Y701093D03*
X912205Y685000D03*
Y690600D03*
X895866Y690591D03*
Y684991D03*
X912677Y706693D03*
X911220Y829370D03*
Y834970D03*
X896012Y853563D03*
Y847963D03*
X908122Y899503D03*
Y893903D03*
X920236Y653888D03*
Y659488D03*
X929409Y673819D03*
Y668219D03*
X920748Y673819D03*
Y668219D03*
X928661Y700787D03*
Y695187D03*
X920551Y687402D03*
Y681802D03*
X929016Y687205D03*
Y681605D03*
X920906Y701172D03*
Y706772D03*
X945236Y524931D03*
Y519331D03*
X937323Y700787D03*
Y695187D03*
X937008Y687402D03*
Y681802D03*
X975669Y537992D03*
Y532392D03*
X976654Y674409D03*
Y680009D03*
X982756Y795000D03*
Y800600D03*
X984094Y532520D03*
Y538120D03*
X1005236Y560699D03*
Y566299D03*
X1020709Y556723D03*
X1007756Y544291D03*
Y549891D03*
X1020709Y562323D03*
X1026870Y945906D03*
Y940306D03*
X1018898Y946063D03*
Y940463D03*
X1038898Y523780D03*
Y529380D03*
X1036220Y842126D03*
X1044882Y842038D03*
X1036220Y847726D03*
X1044882Y847638D03*
X1035039Y946063D03*
Y940463D03*
X1059291Y560148D03*
X1061890Y542165D03*
Y547765D03*
X1054370Y542283D03*
Y547883D03*
X1059291Y565748D03*
X1066929Y904724D03*
Y910324D03*
X1078150Y621850D03*
Y627450D03*
X1078543Y636260D03*
Y641860D03*
X1091181Y657598D03*
Y663198D03*
X1095630Y906811D03*
Y912411D03*
X1109646Y657520D03*
Y663120D03*
X1101024Y657559D03*
Y663159D03*
X1102913Y767835D03*
Y773435D03*
G54D32*
X788308Y833587D03*
X780808D03*
X784508Y840587D03*
G54D14*
X532548Y753188D03*
Y780788D03*
X563948Y753188D03*
Y780788D03*
G54D41*
X907992Y950768D03*
X955236D03*
G54D50*
X985669Y680000D03*
X993069D03*
G54D15*
X530433Y841791D03*
X567933D03*
X648386Y656811D03*
X648228Y682795D03*
X713386Y656811D03*
X713228Y682795D03*
G54D24*
X701891Y854710D03*
Y862510D03*
X686648D03*
Y854710D03*
X749618Y862510D03*
Y854710D03*
X764861D03*
Y862510D03*
X1012756Y566257D03*
Y574057D03*
X1083307Y664451D03*
Y656651D03*
X1076142Y664451D03*
Y656651D03*
G54D51*
X1002070Y882657D03*
Y885807D03*
Y888957D03*
Y892106D03*
Y895256D03*
Y898406D03*
Y901555D03*
Y904705D03*
Y907854D03*
Y911004D03*
Y914154D03*
X1046670Y885807D03*
Y882657D03*
Y911004D03*
Y907854D03*
Y904705D03*
Y901555D03*
Y898406D03*
Y895256D03*
Y892106D03*
Y888957D03*
Y914154D03*
G54D33*
X796758Y672027D03*
X1087428Y906968D03*
G54D42*
X918970Y796831D03*
Y801831D03*
Y806831D03*
Y811831D03*
Y816831D03*
Y821831D03*
Y826831D03*
Y831831D03*
X918694Y844035D03*
Y849035D03*
Y854035D03*
Y859035D03*
Y864035D03*
Y869035D03*
Y874035D03*
Y879035D03*
X939770Y816831D03*
Y811831D03*
Y806831D03*
Y801831D03*
Y796831D03*
Y831831D03*
Y826831D03*
Y821831D03*
X939494Y864035D03*
Y859035D03*
Y854035D03*
Y849035D03*
Y844035D03*
Y879035D03*
Y874035D03*
Y869035D03*
G54D25*
X716600Y712959D03*
X734709D03*
G54D34*
X838583Y463150D03*
X878583D03*
X925276Y463071D03*
X965276D03*
X1007559D03*
X1047559D03*
X1089449D03*
X1129449D03*
G54D43*
X936535Y932067D03*
X926693D03*
Y939941D03*
X936535D03*
G54D16*
X554547Y936122D03*
X594547D03*
G54D52*
X1024941Y523770D03*
X1019941D03*
X1014941D03*
Y544970D03*
X1019941D03*
X1024941D03*
X1029941Y523770D03*
Y544970D03*
X1096240Y614282D03*
X1091240D03*
X1086240D03*
Y635482D03*
X1091240D03*
X1096240D03*
X1101240Y614282D03*
Y635482D03*
G54D26*
X725794Y739361D03*
G54D35*
X832538Y833093D03*
X824138D03*
X866440D03*
X853689D03*
X845289D03*
X887591D03*
X874840D03*
X895991D03*
X899215Y899497D03*
Y891097D03*
X1066535Y865748D03*
X1074935D03*
X1092323Y782657D03*
X1100723D03*
G54D17*
X565197Y682480D03*
X646457Y842052D03*
Y837052D03*
Y832052D03*
X650118Y828626D03*
X654094Y825118D03*
X646457Y862052D03*
Y857052D03*
Y852052D03*
Y847052D03*
Y887052D03*
Y882052D03*
Y877052D03*
Y872052D03*
Y867052D03*
Y912052D03*
Y907052D03*
Y902052D03*
Y897052D03*
Y892052D03*
Y932052D03*
Y927052D03*
Y922052D03*
Y917052D03*
Y957052D03*
Y952052D03*
Y947052D03*
Y942052D03*
Y937052D03*
X654495Y961022D03*
X649495Y961022D03*
X661063Y817563D03*
X665039Y814059D03*
X670512Y813981D03*
X675591Y813784D03*
X657520Y820989D03*
X679495Y961017D03*
X674495Y961018D03*
X669495Y961019D03*
X664495Y961020D03*
X659495Y961021D03*
X681349Y814016D03*
X686939Y813701D03*
X692333Y813898D03*
X698396Y814016D03*
X699495Y961014D03*
X694495Y961015D03*
X689495Y961016D03*
X684495Y961017D03*
X723228Y616535D03*
X703790Y814331D03*
X708790D03*
X713790D03*
X718790D03*
X723790D03*
X715551Y927953D03*
X724495Y961010D03*
X719495Y961011D03*
X714495Y961011D03*
X709495Y961012D03*
X704495Y961013D03*
X730483Y665472D03*
X728790Y814331D03*
X733790D03*
X739331Y814268D03*
X744451Y814370D03*
X749451D03*
X727677Y927953D03*
X749495Y961006D03*
X744495Y961007D03*
X739495Y961007D03*
X734495Y961008D03*
X729495Y961009D03*
X758268Y616929D03*
X754724Y643701D03*
X771816Y643341D03*
X771811Y676535D03*
X755354Y731614D03*
X770239Y791181D03*
X754451Y814370D03*
X759451D03*
X764451D03*
X769806Y801496D03*
X769495Y961002D03*
X764495Y961003D03*
X759495Y961004D03*
X754495Y961005D03*
X780591Y642126D03*
X774884Y791339D03*
X779884D03*
X784884D03*
X789884D03*
X794884D03*
X785472Y845945D03*
X794567Y849331D03*
X777795Y927953D03*
X794495Y960998D03*
X789495Y960999D03*
X784495Y961000D03*
X779495Y961001D03*
X774495Y961002D03*
X799409Y624213D03*
X799173Y636890D03*
X800906Y642835D03*
X801457Y763307D03*
X799884Y791339D03*
X804884D03*
X809884D03*
X814884D03*
X815394Y796313D03*
Y801313D03*
Y806313D03*
Y811313D03*
Y816313D03*
Y821313D03*
Y826313D03*
Y831313D03*
Y836313D03*
Y841313D03*
Y846313D03*
X819495Y960994D03*
X814495Y960995D03*
X809495Y960996D03*
X804495Y960996D03*
X799495Y960997D03*
X823228Y435787D03*
Y431103D03*
X828228D03*
X833228D03*
X838228D03*
X843228D03*
X823228Y445445D03*
Y440445D03*
Y465445D03*
Y460445D03*
Y455445D03*
Y450445D03*
X840945Y448819D03*
X823228Y490445D03*
Y485445D03*
Y480445D03*
Y475445D03*
Y470445D03*
X840945Y488189D03*
X823228Y515445D03*
Y510445D03*
Y505445D03*
Y500445D03*
Y495445D03*
Y535445D03*
Y530445D03*
Y525445D03*
Y520445D03*
X840945Y527559D03*
X838504Y535787D03*
X823228Y560445D03*
Y555445D03*
Y550445D03*
Y545445D03*
Y540445D03*
Y585445D03*
Y580445D03*
Y575445D03*
Y570445D03*
Y565445D03*
X840945Y566930D03*
X828898Y584961D03*
X823228Y605445D03*
Y600445D03*
Y595445D03*
Y590445D03*
X840945Y606300D03*
X823228Y630445D03*
Y625445D03*
Y620445D03*
Y615445D03*
Y610445D03*
Y655445D03*
Y650445D03*
Y645445D03*
Y640445D03*
Y635445D03*
X840945Y645670D03*
X823228Y675445D03*
Y670445D03*
Y665445D03*
Y660445D03*
Y700445D03*
Y695445D03*
Y690445D03*
Y685445D03*
Y680445D03*
X840945Y685040D03*
X832598Y696969D03*
X823228Y725445D03*
Y720445D03*
Y715445D03*
Y710445D03*
Y705445D03*
X840945Y724410D03*
X823228Y745445D03*
Y740445D03*
Y735445D03*
Y730445D03*
Y770445D03*
Y765445D03*
Y760445D03*
Y755445D03*
Y750445D03*
X840945Y763780D03*
X823228Y795445D03*
Y790445D03*
Y785445D03*
Y780445D03*
Y775445D03*
Y815445D03*
Y810445D03*
Y805445D03*
Y800445D03*
X840945Y803150D03*
X832296Y810010D03*
X828359D03*
X832296Y805286D03*
X828359D03*
X832296Y800561D03*
X828359D03*
X823228Y840445D03*
X825984Y825591D03*
X823228Y850445D03*
Y845445D03*
X826929Y864764D03*
X826181Y872244D03*
X839495Y960991D03*
X834495Y960992D03*
X829495Y960993D03*
X824495Y960993D03*
X848228Y431103D03*
X853228D03*
X858228D03*
X863228D03*
X860630Y468504D03*
X863050Y486950D03*
X855020Y489449D03*
X863337Y494074D03*
X862145Y498930D03*
Y503930D03*
Y508930D03*
Y513930D03*
X855020Y514449D03*
Y509449D03*
Y504449D03*
Y499449D03*
Y494449D03*
X853268Y543307D03*
X844055Y584961D03*
X860630Y665355D03*
X857480Y672402D03*
X853819Y676969D03*
X861929Y677126D03*
X866102Y681535D03*
X857992Y681496D03*
X860630Y704725D03*
Y744095D03*
Y783465D03*
X853377Y810404D03*
X849440D03*
X853377Y805679D03*
X849440D03*
X853377Y800955D03*
X849440D03*
X848071Y825984D03*
X860630Y822835D03*
X845118Y872244D03*
X864495Y960987D03*
X859495Y960987D03*
X854495Y960988D03*
X849495Y960989D03*
X844495Y960990D03*
X868228Y431103D03*
X873228D03*
X878228D03*
X883228D03*
X888228D03*
X880315Y448819D03*
X873050Y486950D03*
X878050D03*
X883050D03*
X888050D03*
X888337Y494074D03*
X883337D03*
X878337D03*
X873337D03*
X868337D03*
X876726Y557420D03*
X886726D03*
X881726D03*
X886654Y550296D03*
X881654D03*
X876654D03*
X871654Y553858D03*
X888937Y563780D03*
X878701Y607913D03*
X873504Y629724D03*
X886417Y653701D03*
X886654Y648110D03*
X874803Y658307D03*
X880984Y658386D03*
X884872Y674340D03*
X880315Y685040D03*
X880787Y696969D03*
X880315Y724410D03*
Y763780D03*
Y803150D03*
X874425Y810277D03*
X870488D03*
X874425Y805553D03*
X870488D03*
X874425Y800828D03*
X870488D03*
X869211Y826024D03*
X885918Y877357D03*
X887244Y941654D03*
X884725Y958059D03*
X884727Y953059D03*
X884729Y948059D03*
X878865Y943543D03*
X878863Y948543D03*
X878861Y953543D03*
X878859Y958543D03*
X888752Y961023D03*
X874495Y960985D03*
X869495Y960986D03*
X893228Y431103D03*
X898228D03*
X903228D03*
X908228D03*
X913228D03*
X900000Y468504D03*
X893050Y486950D03*
X908937D03*
X893337Y494074D03*
X912221D03*
X907221D03*
X900000Y507874D03*
X913343Y526950D03*
X908343D03*
X903343D03*
X898508Y528226D03*
X894973Y531761D03*
X893770Y536614D03*
X911941Y534074D03*
X906941D03*
X901996Y534813D03*
X900894Y539690D03*
X893770Y541614D03*
Y561614D03*
X901726Y557420D03*
X900894Y544690D03*
X906726Y557420D03*
X891726D03*
X911726D03*
X911654Y550296D03*
X906654D03*
X901654D03*
X891654D03*
X893770Y566614D03*
Y571614D03*
Y576614D03*
Y581614D03*
X900894Y574690D03*
Y579690D03*
Y564690D03*
Y569690D03*
Y589690D03*
X904661Y592979D03*
X893770Y586614D03*
Y591614D03*
X900000Y625985D03*
X891457Y651614D03*
X900000Y665355D03*
X891417Y658110D03*
X900000Y704725D03*
Y744095D03*
X910431Y762175D03*
X910581Y766888D03*
X900618Y769963D03*
Y764963D03*
X910264Y753074D03*
X904909Y753152D03*
X900618Y754963D03*
Y759963D03*
X910589Y772173D03*
X900618Y774963D03*
X900933Y780869D03*
Y785869D03*
Y790869D03*
Y795869D03*
X910904Y793078D03*
Y788078D03*
Y783078D03*
X910589Y777173D03*
X910472Y798740D03*
X900933Y800869D03*
Y805869D03*
Y810869D03*
Y815869D03*
X910983Y819299D03*
Y814299D03*
X910668Y808393D03*
Y803393D03*
X892397Y801168D03*
X896334D03*
X892397Y805893D03*
X896334D03*
X892397Y810617D03*
X896334D03*
X910039Y841772D03*
X900933Y825869D03*
Y820869D03*
X910983Y824299D03*
X909178Y850406D03*
X909493Y861312D03*
X909178Y855406D03*
X909493Y866312D03*
X891563Y864776D03*
X899215Y881893D03*
X908122Y881744D03*
X909493Y871312D03*
X896824Y877042D03*
X906824D03*
X901824D03*
X890918Y877357D03*
X894202Y928554D03*
X898752Y961023D03*
X893752D03*
X918228Y431103D03*
X923228D03*
X928228D03*
X933228D03*
X919685Y448819D03*
X913937Y486950D03*
X918937D03*
X923937D03*
X928937D03*
X933937D03*
X932221Y494074D03*
X927221D03*
X922221D03*
X917221D03*
X918343Y526950D03*
X926941Y534074D03*
X931941D03*
X921941D03*
X916941D03*
X936147Y531370D03*
X921726Y557420D03*
X926726D03*
X931726D03*
X936726D03*
X916726D03*
X936654Y550296D03*
X931654D03*
X926654D03*
X921654D03*
X916654D03*
X919685Y566930D03*
X927195Y653888D03*
X917343Y711890D03*
X935411Y720767D03*
X930411D03*
X935224Y713643D03*
X930324Y712648D03*
X926788Y709113D03*
X919685Y724410D03*
X915076Y753256D03*
X935076D03*
X930076D03*
X925076D03*
X920076D03*
X915621Y762057D03*
X920621D03*
X925621D03*
X930621D03*
X935621D03*
X916915Y899503D03*
X933752Y961023D03*
X928752D03*
X923752D03*
X918752D03*
X938228Y431103D03*
X943228D03*
X948228D03*
X953228D03*
X958228D03*
X939370Y468504D03*
X959055Y448819D03*
X948838Y488071D03*
X938470Y484839D03*
X959055Y488189D03*
X948838Y493071D03*
Y498071D03*
Y503071D03*
Y508071D03*
Y513071D03*
X941713Y516269D03*
Y511269D03*
Y506269D03*
Y501269D03*
Y496269D03*
X937221Y494074D03*
X940236Y528493D03*
X959055Y527559D03*
X941726Y557420D03*
X946726D03*
X951726D03*
X956726D03*
X956654Y550296D03*
X951654D03*
X946654D03*
X941654D03*
X959055Y566930D03*
X952756Y577520D03*
X959055Y606300D03*
X939370Y586615D03*
X959055Y685040D03*
X945224Y713643D03*
X955062Y714906D03*
X940411Y720767D03*
X945411D03*
X950411D03*
X954158Y724077D03*
X940224Y713643D03*
X950224D03*
X958597Y718442D03*
X939370Y704725D03*
X957693Y727613D03*
X939370Y744095D03*
X945433Y773228D03*
X960076Y753256D03*
X955076D03*
X950076D03*
X945076D03*
X940076D03*
X940621Y762057D03*
X945621D03*
X945433Y780787D03*
X945512Y788465D03*
X945709Y809882D03*
X945866Y844606D03*
X943752Y961023D03*
X938752D03*
X963228Y431103D03*
X968228D03*
X973228D03*
X978228D03*
X983228D03*
X978740Y507874D03*
X961726Y557420D03*
X966726D03*
X971726D03*
X976726D03*
X981654Y550296D03*
X976654D03*
X971654D03*
X966654D03*
X961654D03*
X971811Y604685D03*
X964291Y592677D03*
X978740Y625985D03*
X970334Y678054D03*
X978740Y665355D03*
X975413Y688554D03*
Y698554D03*
Y693554D03*
X968288Y697616D03*
Y702616D03*
Y692616D03*
Y687616D03*
Y682616D03*
X975413Y703554D03*
Y708554D03*
Y713554D03*
X977503Y718095D03*
X981039Y721631D03*
X968288Y707616D03*
Y712616D03*
X968291Y717616D03*
X971091Y721758D03*
X974626Y725294D03*
X965668Y725513D03*
X962133Y721977D03*
X961229Y731148D03*
X964765Y734684D03*
X964824Y739683D03*
Y744683D03*
Y749683D03*
X971948Y748228D03*
X978162Y728829D03*
X981697Y732365D03*
X971948Y743228D03*
Y738228D03*
X971948Y733228D03*
X969204Y729048D03*
X978740Y744095D03*
X964824Y769683D03*
Y764683D03*
Y754683D03*
Y759683D03*
X971948Y753228D03*
Y763228D03*
Y758228D03*
X980717Y817120D03*
X970906Y934134D03*
X978752Y961023D03*
X973752D03*
X968752D03*
X963752D03*
X988228Y431103D03*
X993228D03*
X998228D03*
X1003228D03*
X998425Y448819D03*
Y488189D03*
X1002589Y530306D03*
X1002677Y535197D03*
X986726Y557420D03*
X991726D03*
X996726D03*
X1001654Y550296D03*
X996654D03*
X991654D03*
X986654D03*
X1001024Y544291D03*
X998425Y566930D03*
X996417Y604567D03*
X989369Y666300D03*
X998425Y685040D03*
X984574Y725167D03*
X998425Y724410D03*
X991357Y747586D03*
X991257Y732587D03*
X988110Y728702D03*
X991357Y737586D03*
Y742586D03*
X984233Y736674D03*
Y741674D03*
Y746674D03*
X991357Y762586D03*
Y757586D03*
Y752586D03*
Y767586D03*
Y772586D03*
X984233Y751674D03*
Y756674D03*
Y761674D03*
Y766674D03*
Y771674D03*
X997059Y754131D03*
Y769131D03*
Y764131D03*
Y759131D03*
X991357Y777586D03*
Y782586D03*
X984233Y781674D03*
Y776674D03*
X991357Y792586D03*
Y787586D03*
X997059Y774131D03*
Y779131D03*
Y794131D03*
Y789131D03*
Y784131D03*
X991357Y802586D03*
X984233Y806674D03*
X985456Y815526D03*
X988991Y811991D03*
X991357Y807586D03*
Y797586D03*
X1002123Y804161D03*
X997123D03*
X997059Y799131D03*
X1001136Y811920D03*
X1006136D03*
X996136D03*
X1001811Y839764D03*
X1001969Y849213D03*
X985827Y885827D03*
X990030Y905289D03*
Y910014D03*
X985827Y893701D03*
X991000Y894067D03*
X990039Y934134D03*
X990030Y914738D03*
X1003752Y961023D03*
X998752D03*
X993752D03*
X988752D03*
X983752D03*
X1008228Y431103D03*
X1013228D03*
X1018228D03*
X1023228D03*
X1028228D03*
X1018110Y468504D03*
X1023997Y491207D03*
X1027469Y515737D03*
X1023997Y496207D03*
X1011299Y501850D03*
X1010787Y509882D03*
X1024685Y536339D03*
X1018583Y537953D03*
X1026726Y557420D03*
X1013898Y560472D03*
X1018110Y586615D03*
Y625985D03*
Y665355D03*
X1012057Y695954D03*
X1018110Y744095D03*
Y783465D03*
X1027123Y804161D03*
X1022123D03*
X1017123D03*
X1012123D03*
X1007123D03*
X1016136Y811920D03*
X1011136D03*
X1021924Y811802D03*
X1026924D03*
X1017486Y931170D03*
X1023774D03*
X1028752Y961023D03*
X1023752D03*
X1018752D03*
X1013752D03*
X1008752D03*
X1033228Y431103D03*
X1038228D03*
X1043228D03*
X1048228D03*
X1053228D03*
X1037795Y448819D03*
Y488189D03*
X1041909Y513300D03*
X1036911Y513444D03*
X1031121Y493071D03*
X1035239Y506320D03*
X1040237Y506463D03*
X1045237Y506478D03*
X1049285Y509412D03*
X1052188Y513483D03*
X1045361Y531918D03*
Y516918D03*
X1052198Y518483D03*
Y528483D03*
X1045079Y523780D03*
X1031726Y557420D03*
X1036726D03*
X1046654Y550296D03*
X1041654D03*
X1034843Y545630D03*
X1052047Y563780D03*
X1052126Y568937D03*
X1047205Y574173D03*
X1053307Y651063D03*
X1042126Y695276D03*
X1037795Y724410D03*
Y763780D03*
X1052087Y796181D03*
X1042123Y804161D03*
X1037123D03*
X1032123D03*
X1041924Y811802D03*
X1036924D03*
X1031924D03*
X1046378Y804724D03*
X1044882Y852598D03*
X1036220Y852795D03*
X1038346Y907008D03*
X1036220Y935433D03*
X1031071Y930988D03*
X1048752Y961023D03*
X1043752D03*
X1038752D03*
X1033752D03*
X1058228Y431103D03*
X1063228D03*
X1068228D03*
X1073228D03*
X1057480Y468504D03*
Y507874D03*
X1075251Y532580D03*
X1065251D03*
X1060251D03*
X1055251D03*
X1068228Y558583D03*
X1075315Y548937D03*
X1061969Y553858D03*
X1061299Y586063D03*
X1073996Y581043D03*
X1070866Y597402D03*
X1064055Y624685D03*
X1073268Y679213D03*
Y672913D03*
X1060276Y686575D03*
X1060000Y680787D03*
X1075844Y805551D03*
X1071299Y808156D03*
X1075089Y811417D03*
X1053898Y800906D03*
X1058307Y806614D03*
X1059843Y896457D03*
X1059315Y901170D03*
X1066929Y916929D03*
X1073752Y961023D03*
X1068752D03*
X1063752D03*
X1058752D03*
X1053752D03*
X1078228Y431103D03*
X1083228D03*
X1088228D03*
X1093228D03*
X1098228D03*
X1096850Y468504D03*
X1077165Y448819D03*
Y488189D03*
X1083369Y515754D03*
X1088369D03*
X1093369D03*
X1098369D03*
X1096850Y507874D03*
X1100251Y532580D03*
X1095251D03*
X1090251D03*
X1085251D03*
X1080251D03*
X1092244Y539704D03*
X1097244D03*
X1099923Y522878D03*
X1094923D03*
X1089923D03*
X1084923D03*
X1077165Y527559D03*
X1096850Y547244D03*
X1082126Y558268D03*
X1096850Y625985D03*
X1078425Y646300D03*
X1078150Y651024D03*
X1079449Y679213D03*
X1079173Y673189D03*
X1087323Y674094D03*
X1099685D03*
X1098898Y679764D03*
X1077165Y724410D03*
X1088386Y706732D03*
X1099458Y747836D03*
X1096850Y744095D03*
X1099351Y757835D03*
Y762835D03*
Y752835D03*
X1077165Y763780D03*
X1095844Y805551D03*
X1090844D03*
X1085844D03*
X1080844D03*
X1080089Y811417D03*
X1085089D03*
X1090089D03*
X1095089D03*
X1100089D03*
X1095591Y875906D03*
X1095630Y917559D03*
X1079528Y916535D03*
X1098752Y961023D03*
X1093752D03*
X1088752D03*
X1083752D03*
X1078752D03*
X1103228Y431103D03*
X1108228D03*
X1113228D03*
X1118228D03*
X1123228D03*
X1116535Y448819D03*
X1105887Y489859D03*
X1113011Y488071D03*
X1111967Y515117D03*
X1103040Y513969D03*
X1105887Y509859D03*
Y504859D03*
Y499859D03*
Y494859D03*
X1113011Y493071D03*
Y498071D03*
Y503071D03*
Y508071D03*
X1110251Y532580D03*
X1105251D03*
X1102244Y539704D03*
X1107244D03*
X1113770Y535977D03*
X1117046Y539646D03*
X1108432Y518652D03*
X1104871Y522163D03*
X1116535Y527559D03*
X1120960Y543209D03*
X1111462Y543783D03*
X1115824Y548618D03*
X1119911Y552429D03*
X1123534Y556228D03*
X1116535Y566930D03*
Y606300D03*
X1102283Y597047D03*
X1116535Y645670D03*
X1106772Y674291D03*
X1103268Y678661D03*
X1106457Y682992D03*
X1105433Y705551D03*
X1102756Y734291D03*
X1122756Y735394D03*
X1118150Y735472D03*
X1106476Y763941D03*
Y758941D03*
X1116535Y763780D03*
X1103228Y796260D03*
X1106100Y780604D03*
X1120844Y805551D03*
X1115844D03*
X1110844D03*
X1105844D03*
X1100844D03*
X1105089Y811417D03*
X1110089D03*
X1115089D03*
X1120089D03*
X1104409Y907008D03*
X1118752Y961023D03*
X1113752D03*
X1108752D03*
X1103752D03*
X1128228Y431103D03*
X1133228D03*
X1138228D03*
X1143228D03*
X1136220Y468504D03*
X1128650Y550537D03*
X1136052Y558765D03*
X1124974Y546658D03*
X1132598Y554625D03*
X1127042Y560004D03*
X1137076Y563607D03*
Y583607D03*
Y568607D03*
Y573607D03*
Y578607D03*
X1129951Y563512D03*
Y568512D03*
Y573512D03*
Y578512D03*
Y583512D03*
X1137076Y598607D03*
Y603607D03*
Y608607D03*
Y593607D03*
X1129951Y588512D03*
Y593512D03*
Y598512D03*
Y603512D03*
Y608512D03*
X1137008Y588583D03*
X1137076Y628607D03*
X1129951Y613512D03*
Y618512D03*
Y623512D03*
Y628512D03*
X1137076Y623607D03*
Y613607D03*
Y618607D03*
X1129951Y633512D03*
Y638512D03*
Y643512D03*
Y648512D03*
X1137076Y653607D03*
X1129951Y653512D03*
X1137076Y648607D03*
Y633607D03*
Y643607D03*
Y638607D03*
X1138257Y673607D03*
Y669001D03*
X1137076Y658607D03*
X1138257Y664001D03*
X1129951Y658512D03*
X1129164Y663512D03*
X1138178Y678607D03*
X1133504Y665315D03*
X1142008Y688228D03*
X1138583Y762953D03*
X1136220Y783465D03*
X1144860Y804646D03*
X1139860D03*
X1134860D03*
X1129860D03*
X1124860D03*
X1125089Y811417D03*
X1130089D03*
X1135089D03*
X1140089D03*
X1145089D03*
X1143752Y961023D03*
X1138752D03*
X1133752D03*
X1128752D03*
X1123752D03*
X1148228Y431103D03*
X1153228D03*
X1158228D03*
X1163228D03*
X1163385Y436100D03*
Y441100D03*
Y446100D03*
Y451100D03*
Y456100D03*
Y461100D03*
Y466100D03*
X1155906Y448819D03*
X1163385Y471100D03*
Y476100D03*
Y481100D03*
Y486100D03*
Y491100D03*
X1155906Y488189D03*
X1163385Y496100D03*
Y501100D03*
Y506100D03*
Y511100D03*
Y516100D03*
Y521100D03*
Y526100D03*
Y531100D03*
Y536100D03*
Y541100D03*
Y546100D03*
Y551100D03*
Y556100D03*
Y561100D03*
Y566100D03*
Y571100D03*
Y576100D03*
Y581100D03*
Y586100D03*
X1155906Y566930D03*
X1163385Y591100D03*
Y596100D03*
Y601100D03*
Y606100D03*
X1155906Y606300D03*
X1163385Y611100D03*
Y616100D03*
Y621100D03*
Y626100D03*
Y631100D03*
Y636100D03*
Y641100D03*
Y646100D03*
Y651100D03*
Y656100D03*
X1155906Y645670D03*
X1163385Y661100D03*
Y666100D03*
Y671100D03*
Y676100D03*
Y681100D03*
Y686100D03*
Y691100D03*
Y696100D03*
Y701100D03*
X1155906Y685040D03*
X1163385Y706100D03*
Y711100D03*
Y716100D03*
Y721100D03*
Y726100D03*
X1155906Y724410D03*
X1163385Y731100D03*
Y736100D03*
Y741100D03*
Y746100D03*
Y751100D03*
Y756100D03*
Y761100D03*
Y766100D03*
Y771100D03*
X1155906Y763780D03*
X1163385Y776100D03*
Y781100D03*
Y786100D03*
Y791100D03*
Y796100D03*
Y801100D03*
X1159860Y804646D03*
X1154860D03*
X1149860D03*
X1150089Y811417D03*
X1155089D03*
X1160089D03*
X1163385Y815177D03*
Y837428D03*
Y842428D03*
Y827428D03*
Y832428D03*
Y820177D03*
Y857428D03*
Y862428D03*
Y847428D03*
Y852428D03*
Y887428D03*
Y873655D03*
Y878655D03*
Y892428D03*
Y904145D03*
Y909145D03*
Y914145D03*
Y919145D03*
Y924145D03*
Y929145D03*
Y934145D03*
Y939145D03*
Y944145D03*
Y949145D03*
Y954145D03*
Y959145D03*
X1158752Y961023D03*
X1153752D03*
X1148752D03*
G54D44*
X952156Y770709D03*
Y775709D03*
Y780709D03*
Y785709D03*
Y790709D03*
Y795709D03*
Y800709D03*
X952392Y844606D03*
Y849606D03*
Y854606D03*
Y859606D03*
Y864606D03*
Y869606D03*
Y874606D03*
X973356Y770709D03*
Y790709D03*
Y785709D03*
Y780709D03*
Y775709D03*
Y800709D03*
Y795709D03*
X973592Y864606D03*
Y859606D03*
Y854606D03*
Y849606D03*
Y844606D03*
Y874606D03*
Y869606D03*
G54D53*
X1027590Y560983D03*
Y563583D03*
Y566183D03*
X1036190Y560983D03*
Y566183D03*
Y563583D03*
G54D36*
X858583Y483150D03*
X945276Y483071D03*
X1027559D03*
X1109449D03*
G54D18*
X639274Y745276D03*
X662874D03*
G54D54*
X1029764Y673350D03*
Y692950D03*
G54D27*
X742970Y617520D03*
X750770D03*
X1026065Y573189D03*
X1018265D03*
G54D45*
X952494Y814977D03*
Y817577D03*
Y820077D03*
Y822677D03*
Y825277D03*
Y827777D03*
Y830377D03*
X975694Y817577D03*
Y814977D03*
Y830377D03*
Y827777D03*
Y825277D03*
Y822677D03*
Y820077D03*
X1076159Y684071D03*
Y686671D03*
Y689271D03*
Y691771D03*
Y694371D03*
Y696871D03*
Y699471D03*
Y702071D03*
X1098959Y699471D03*
Y696871D03*
Y694371D03*
Y691771D03*
Y689271D03*
Y686671D03*
Y684071D03*
Y702071D03*
G54D37*
X863563Y563770D03*
X858563D03*
Y584970D03*
X863563D03*
X873563Y563770D03*
X868563D03*
Y584970D03*
X873563D03*
X908445Y653258D03*
X903445D03*
X898445D03*
Y674458D03*
X903445D03*
X908445D03*
X913445Y653258D03*
Y674458D03*
X1070492Y614439D03*
X1065492D03*
X1060492D03*
X1055492D03*
Y635639D03*
X1060492D03*
X1065492D03*
X1070492D03*
G54D28*
X741210Y634350D03*
X730010D03*
X741683Y657972D03*
X730483D03*
X858592Y535787D03*
X847392D03*
Y543307D03*
X858592D03*
X1016683Y501850D03*
X1027883D03*
X1027687Y509882D03*
X1016487D03*
G54D19*
X657089Y782795D03*
X639289D03*
G54D55*
X1027520Y876106D03*
X1024370D03*
X1021220D03*
X1018071D03*
X1014921D03*
X1011772D03*
X1008622D03*
Y920706D03*
X1011772D03*
X1014921D03*
X1018071D03*
X1021220D03*
X1024370D03*
X1027520D03*
X1040118Y876106D03*
X1036969D03*
X1033819D03*
X1030669D03*
Y920706D03*
X1033819D03*
X1036969D03*
X1040118D03*
G54D46*
X977244Y580733D03*
X980984Y570133D03*
X977244D03*
X984724Y580733D03*
Y570133D03*
X1110886Y794493D03*
X1118366D03*
Y783893D03*
X1114626D03*
X1110886D03*
G54D29*
X757372Y623228D03*
Y628228D03*
Y633228D03*
Y638228D03*
X778572Y628228D03*
Y623228D03*
Y638228D03*
Y633228D03*
X1111211Y740531D03*
Y745531D03*
Y750531D03*
Y755531D03*
X1132411Y745531D03*
Y740531D03*
Y755531D03*
Y750531D03*
G54D47*
X992166Y709134D03*
X1029566D03*
G54D38*
X862259Y927205D03*
Y930945D03*
Y934685D03*
X872859D03*
Y927205D03*
G54D56*
X1075314Y543403D03*
X1072814D03*
X1070214D03*
X1067614D03*
Y566203D03*
X1070214D03*
X1072814D03*
X1075314D03*
X1085614Y543403D03*
X1083014D03*
X1080414D03*
X1077914D03*
Y566203D03*
X1080414D03*
X1083014D03*
X1085614D03*
G54D39*
X868583Y483150D03*
X955276Y483071D03*
X1037559D03*
X1119449D03*
G54D57*
X1158189Y825039D03*
Y835039D03*
Y845039D03*
Y855039D03*
Y865039D03*
Y875039D03*
Y885039D03*
Y895039D03*
G54D48*
X982058Y934134D03*
Y932134D03*
X975658D03*
Y934134D03*
X982058Y936134D03*
X975658D03*
G54D49*
X989369Y672100D03*
M02*
