G04 ================== begin FILE IDENTIFICATION RECORD ==================*
G04 Layout Name:  F:/RLC_Meter_Project/RCL_Meter_Brd/RCL_Meter.brd*
G04 Film Name:    Power_Copper*
G04 File Format:  Gerber RS274X*
G04 File Origin:  Cadence Allegro 17.2-P019*
G04 Origin Date:  Sat Jul 18 23:45:58 2020*
G04 *
G04 Layer:  VIA CLASS/POWER PLANE*
G04 Layer:  PIN/POWER PLANE*
G04 Layer:  ETCH/POWER PLANE*
G04 *
G04 Offset:    (0.0000 0.0000)*
G04 Mirror:    No*
G04 Mode:      Positive*
G04 Rotation:  0*
G04 FullContactRelief:  No*
G04 UndefLineWidth:     0.1000*
G04 ================== end FILE IDENTIFICATION RECORD ====================*
%FSLAX25Y25*MOIN*%
%IR0*IPPOS*OFA0.00000B0.00000*MIA0B0*SFA1.00000B1.00000*%
%ADD15C,.03*%
%ADD14O,.149606X.200787*%
%ADD21C,.055118*%
%ADD18C,.118701*%
%ADD16C,.045*%
%ADD13C,.063*%
%ADD10C,.05*%
%ADD17C,.065*%
%ADD12C,.055*%
%ADD20C,.055039*%
%ADD22C,.07*%
%ADD11C,.066*%
%ADD19R,.055039X.055039*%
%ADD23C,.007874*%
%ADD24C,.03937*%
%ADD25C,.003543*%
%ADD26O,.045756X.695756*%
%ADD40R,.400016X.400016*%
%ADD32O,.045756X.095756*%
%ADD36O,.045756X.145756*%
%ADD27O,.045756X.245756*%
%ADD38C,.070882*%
%ADD34O,.045756X.295756*%
%ADD37O,.045756X.140244*%
%ADD28C,.045764*%
%ADD31C,.134465*%
%ADD33O,.045756X.195756*%
%ADD35C,.085764*%
%ADD39C,.106567*%
%ADD29C,.070764*%
%ADD30C,.070803*%
G75*
%LPD*%
G75*
G36*
G01X1165236Y433257D02*
G02X1164597Y432936I-400J0D01*
G03X1163228Y433391I-1369J-1834D01*
G01X825516D01*
Y815445D01*
G03X821893Y817303I-2288J0D01*
G02X821260Y817628I-233J325D01*
G01Y819600D01*
X824376Y822717D01*
X838031D01*
X839016Y821732D01*
Y804381D01*
G03Y801919I1929J-1231D01*
G01Y765011D01*
G03Y762549I1929J-1231D01*
G01Y725641D01*
G03Y723179I1929J-1231D01*
G01Y686270D01*
G03Y683809I1929J-1231D01*
G01Y646900D01*
G03Y644439I1929J-1231D01*
G01Y630243D01*
X834528Y625754D01*
Y530827D01*
X838999Y526355D01*
X839011Y526337D01*
G03X839741Y525614I1934J1223D01*
G01X846060Y519294D01*
Y486375D01*
X857395Y475039D01*
X1022408D01*
X1026899Y479531D01*
X1030311D01*
G03X1031099Y480319I0J788D01*
G01Y483731D01*
X1034969Y487601D01*
G02X1035631Y487448I283J-283D01*
G03X1035993Y486780I2165J741D01*
G02X1035869Y486181I-315J-247D01*
G03X1039528Y486013I1690J-3111D01*
G02X1039460Y486619I223J332D01*
G03X1037801Y490478I-1665J1570D01*
G02X1037402Y490878I1J400D01*
G01Y505571D01*
X1037412Y505602D01*
G03Y507037I-2173J718D01*
G01X1037402Y507068D01*
Y511204D01*
X1037546Y511246D01*
G03Y515643I-635J2198D01*
G01X1037402Y515684D01*
Y522795D01*
X1044430Y529824D01*
X1044551Y529778D01*
G03X1047501Y532728I810J2140D01*
G01X1047455Y532849D01*
X1099528Y584921D01*
Y671607D01*
G02X1099724Y671807I200J0D01*
G03Y676382I-39J2288D01*
G02X1099528Y676582I4J200D01*
G01Y677559D01*
X1099661Y677607D01*
G03X1100452Y678085I-764J2157D01*
G02X1101103Y677921I272J-294D01*
G03X1101713Y680340I2165J741D01*
G02X1101063Y680504I-272J294D01*
G03X1099661Y681921I-2165J-741D01*
G01X1099528Y681968D01*
Y708031D01*
X1118327Y726831D01*
Y733185D01*
X1118496Y733211D01*
G03X1120090Y734259I-347J2262D01*
G02X1120775Y734248I339J-212D01*
G03X1120816Y736607I1981J1146D01*
G02X1120130Y736618I-339J212D01*
G03X1118496Y737734I-1981J-1146D01*
G01X1118327Y737760D01*
Y759744D01*
X1132333Y773750D01*
X1161915D01*
G02X1162133Y773015I0J-400D01*
G03X1161098Y771100I1252J-1915D01*
G01Y436100D01*
G03X1164620Y434174I2288J0D01*
G02X1165236Y433838I216J-337D01*
G01Y433257D01*
G37*
G36*
G01X843233Y527598D02*
G03X839144Y528970I-2288J-39D01*
G02X838546Y528934I-315J247D01*
G01X835669Y531811D01*
Y624764D01*
X840433Y629528D01*
Y642984D01*
G02X840850Y643383I400J0D01*
G03X842104Y647643I95J2286D01*
G02X842023Y648270I202J345D01*
G01X858029Y664276D01*
G02X858657Y664196I283J-283D01*
G03X861789Y667328I1973J1159D01*
G02X861708Y667956I202J345D01*
G01X870080Y676327D01*
Y676733D01*
X870276Y676929D01*
Y684724D01*
X858898Y696102D01*
Y702390D01*
G02X859496Y702737I400J0D01*
G03Y706712I1134J1987D01*
G02X858898Y707059I-198J347D01*
G01Y741760D01*
G02X859496Y742107I400J0D01*
G03Y746082I1134J1987D01*
G02X858898Y746430I-198J347D01*
G01Y781130D01*
G02X859496Y781478I400J0D01*
G03Y785452I1134J1987D01*
G02X858898Y785800I-198J347D01*
G01Y810945D01*
X862677Y814724D01*
X878307D01*
Y804247D01*
G03Y802053I2008J-1097D01*
G01Y764877D01*
G03Y762683I2008J-1097D01*
G01Y725507D01*
G03Y723313I2008J-1097D01*
G01Y698172D01*
G03Y695765I2480J-1203D01*
G01Y686137D01*
G03Y683943I2008J-1097D01*
G01Y668228D01*
X858543Y648465D01*
Y594252D01*
X846496Y582205D01*
Y528307D01*
X845394Y527205D01*
X843633D01*
G02X843233Y527598I0J400D01*
G37*
G36*
G01X840197Y647897D02*
Y682374D01*
G02X840649Y682771I400J0D01*
G03Y687309I296J2269D01*
G02X840197Y687705I-52J397D01*
G01Y721744D01*
G02X840649Y722141I400J0D01*
G03Y726679I296J2269D01*
G02X840197Y727075I-52J397D01*
G01Y761115D01*
G02X840649Y761511I400J0D01*
G03Y766049I296J2269D01*
G02X840197Y766445I-52J397D01*
G01Y800485D01*
G02X840649Y800881I400J0D01*
G03Y805419I296J2269D01*
G02X840197Y805815I-52J397D01*
G01Y814803D01*
X857992D01*
Y695787D01*
X869291Y684488D01*
Y676654D01*
X860250Y667612D01*
X860190Y667600D01*
G03X858384Y665795I440J-2246D01*
G01X858373Y665735D01*
X840565Y647927D01*
X840505Y647915D01*
G03X840441Y647902I451J-2243D01*
G01X840419Y647897D01*
X840197D01*
G37*
G36*
G01X857083Y476772D02*
X847087Y486937D01*
Y527783D01*
X847284Y527981D01*
Y581878D01*
X859331Y593926D01*
Y594437D01*
X859921Y595027D01*
Y648728D01*
X879095Y667902D01*
Y667914D01*
X879173Y667992D01*
Y682456D01*
G02X879683Y682841I400J0D01*
G03X881507Y683087I632J2199D01*
G02X882116Y682745I208J-341D01*
G01Y674340D01*
G03X887629I2757J0D01*
G01Y694025D01*
X882737Y698918D01*
G03X879727Y699513I-1949J-1949D01*
G02X879173Y699882I-154J369D01*
G01Y721826D01*
G02X879683Y722211I400J0D01*
G03Y726609I631J2199D01*
G02X879173Y726994I-110J385D01*
G01Y761196D01*
G02X879683Y761581I400J0D01*
G03Y765979I631J2199D01*
G02X879173Y766364I-110J385D01*
G01Y800566D01*
G02X879683Y800951I400J0D01*
G03Y805349I631J2199D01*
G02X879173Y805734I-110J385D01*
G01Y809291D01*
X884409Y814528D01*
X897874D01*
X898645Y813756D01*
Y780869D01*
G03X900971Y778581I2288J0D01*
G02X901378Y778181I7J-400D01*
G01Y777627D01*
G02X900924Y777231I-400J0D01*
G03X898330Y774963I-306J-2267D01*
G01Y754963D01*
G03X900924Y752696I2288J0D01*
G02X901378Y752300I54J-396D01*
G01Y746599D01*
G02X900832Y746226I-400J0D01*
G03Y741963I-832J-2131D01*
G02X901378Y741591I146J-372D01*
G01Y707229D01*
G02X900832Y706856I-400J0D01*
G03Y702593I-832J-2131D01*
G02X901378Y702221I146J-372D01*
G01Y672795D01*
X882874Y654291D01*
Y654225D01*
X882794Y654145D01*
Y641632D01*
X882874Y641552D01*
Y641299D01*
X886693Y637480D01*
X986772D01*
X1046299Y577953D01*
X1057520Y577913D01*
X1082362Y602756D01*
Y705079D01*
X1086585Y709301D01*
X1094030Y709316D01*
X1098504Y704843D01*
Y682023D01*
X1098352Y681986D01*
G03Y677542I546J-2222D01*
G01X1098504Y677504D01*
Y676054D01*
G03Y672135I1181J-1960D01*
G01Y628363D01*
G02X1097917Y628009I-400J0D01*
G03Y623961I-1067J-2024D01*
G02X1098504Y623607I187J-354D01*
G01Y585315D01*
X1071182Y557993D01*
G02X1070502Y558321I-283J283D01*
G03X1066492Y560073I-2273J262D01*
G02X1065788Y560333I-304J260D01*
G01Y567784D01*
X1078387Y580382D01*
Y583476D01*
X1076193Y585670D01*
X1072548D01*
X1052816Y565938D01*
X1052701Y565972D01*
G03X1049760Y563853I-654J-2193D01*
G02X1049361Y563465I-400J13D01*
G01X1044437D01*
X1039378Y558406D01*
G02X1038743Y558500I-283J283D01*
G03X1036726Y559708I-2017J-1080D01*
G01X1026726D01*
G03X1024438Y557410I0J-2288D01*
G02X1024038Y557009I-400J-2D01*
G01X1008430D01*
X1003146Y552038D01*
X1003012Y552137D01*
G03X1001654Y552584I-1358J-1841D01*
G01X901654D01*
G03Y548008I0J-2288D01*
G01X997854D01*
G02X998128Y547317I0J-400D01*
G01X996587Y545867D01*
X996611Y543849D01*
X999792Y540669D01*
X1002610D01*
X1009303Y547361D01*
X1032507D01*
G02X1032855Y546763I0J-400D01*
G03X1036830I1988J-1133D01*
G02X1037178Y547361I347J198D01*
G01X1056901D01*
X1061230Y551689D01*
X1061343Y551657D01*
G03X1064169Y554484I626J2201D01*
G01X1064137Y554597D01*
X1065788Y556248D01*
Y556832D01*
G02X1066492Y557093I400J0D01*
G03X1068490Y556309I1736J1490D01*
G02X1068818Y555629I46J-397D01*
G01X1046847Y533658D01*
G03X1043515Y530566I-1486J-1740D01*
G01X1043616Y530427D01*
X1036614Y523425D01*
Y523122D01*
X1036613Y523122D01*
Y515719D01*
X1036454Y515686D01*
G03Y511202I458J-2242D01*
G01X1036613Y511170D01*
Y508825D01*
G02X1036069Y508452I-400J0D01*
G03Y504187I-830J-2133D01*
G02X1036613Y503814I145J-373D01*
G01Y491613D01*
X1031407Y486407D01*
G02X1030850Y486398I-283J283D01*
G03X1030311Y486611I-539J-575D01*
G01X1024807D01*
G03X1024019Y485823I0J-788D01*
G01Y480319D01*
G03X1024232Y479780I788J0D01*
G02X1024223Y479223I-292J-273D01*
G01X1021772Y476772D01*
X857083D01*
G37*
G36*
G01X1081496Y710079D02*
X1081515Y681323D01*
G02X1080867Y681009I-400J0D01*
G03X1080869Y677419I-1418J-1796D01*
G02X1081517Y677105I248J-314D01*
G01X1081519Y675044D01*
G02X1080829Y674768I-400J0D01*
G03X1080831Y671612I-1656J-1579D01*
G02X1081521Y671336I290J-276D01*
G01X1081535Y648346D01*
Y603071D01*
X1064270Y585806D01*
G02X1063587Y586085I-283J283D01*
G03X1061278Y583775I-2288J-22D01*
G02X1061557Y583092I-4J-400D01*
G01X1058071Y579606D01*
X1046102D01*
X987165Y638543D01*
X886998D01*
X883583Y641958D01*
Y653819D01*
X902520Y672756D01*
X980276D01*
X1058504Y750984D01*
X1098005D01*
G03X1100697I1346J1850D01*
G01X1114094D01*
X1117539Y747540D01*
Y737682D01*
X1117404Y737636D01*
G03Y733309I746J-2163D01*
G01X1117539Y733263D01*
Y727157D01*
X1100499Y710118D01*
X1081496Y710079D01*
G37*
G36*
G01X906614Y759331D02*
Y848813D01*
G02X907336Y849050I400J0D01*
G03X911466Y850406I1842J1357D01*
G01Y855406D01*
G03X907336Y856763I-2288J0D01*
G02X906614Y857000I-322J237D01*
G01Y874754D01*
X906824D01*
G03X908303Y878787I0J2288D01*
G02X908496Y879487I259J305D01*
G03X907091Y879702I-374J2257D01*
G02X906986Y879324I-90J-178D01*
G03X906824Y879330I-164J-2282D01*
G01X900812D01*
G02X900574Y880052I0J400D01*
G03X897856I-1359J1841D01*
G02X897619Y879330I-238J-322D01*
G01X896824D01*
G03X895550Y875142I0J-2288D01*
G02X895327Y874409I-223J-332D01*
G01X884173D01*
Y875030D01*
G02X884773Y875376I400J0D01*
G03X885918Y875069I1145J1981D01*
G01X890918D01*
G03Y879645I0J2288D01*
G01X885918D01*
G03X884773Y879338I0J-2288D01*
G02X884173Y879684I-200J346D01*
G01Y907402D01*
X966339D01*
Y882008D01*
X992795D01*
Y854173D01*
X1003504D01*
X1005000Y852677D01*
Y837165D01*
X1002598Y834764D01*
X992795D01*
Y810066D01*
G02X992241Y809696I-400J0D01*
G03X989070Y807586I-884J-2110D01*
G01Y759331D01*
X986090D01*
G02X985813Y760020I0J400D01*
G03X986521Y761674I-1580J1654D01*
G01Y781674D01*
G03X981945I-2288J0D01*
G01Y761674D01*
G03X982653Y760020I2288J0D01*
G02X982376Y759331I-276J-289D01*
G01X974236D01*
Y763228D01*
G03X969660I-2288J0D01*
G01Y759331D01*
X967107D01*
Y759537D01*
X967107Y759543D01*
G03X967111Y759683I-2283J141D01*
G01Y769683D01*
G03X962536I-2288J0D01*
G01Y759683D01*
G03X962540Y759543I2288J0D01*
G01X962541Y759537D01*
Y759331D01*
X906614D01*
G37*
G36*
G01X1017594Y810157D02*
G03X1016136Y814208I-1458J1763D01*
G01X996136D01*
G03X994304Y813290I0J-2287D01*
G02X993583Y813530I-320J239D01*
G01Y820235D01*
X1092733D01*
X1099166Y826668D01*
Y915694D01*
X1097853Y917007D01*
X1097874Y917112D01*
G03X1096077Y915315I-2244J447D01*
G01X1096182Y915336D01*
X1096802Y914715D01*
Y827647D01*
X1091755Y822599D01*
X993583D01*
Y833976D01*
X1002925D01*
X1005788Y836839D01*
Y853004D01*
X1003830Y854961D01*
X993583D01*
Y882796D01*
X967127D01*
Y908190D01*
X884173D01*
Y945376D01*
G02X884596Y945775I400J0D01*
G03X884402Y950324I133J2284D01*
G01X884388Y950322D01*
X884173D01*
Y950796D01*
X884387D01*
X884402Y950794D01*
G03Y955324I326J2265D01*
G01X884387Y955322D01*
X884173D01*
Y955796D01*
X884387D01*
X884402Y955794D01*
G03X884596Y960344I323J2265D01*
G02X884173Y960743I-22J399D01*
G01Y962992D01*
X886569D01*
G02X886894Y962358I0J-400D01*
G03X888752Y958735I1858J-1335D01*
G01X898752D01*
G03X900609Y962358I0J2288D01*
G02X900934Y962992I325J233D01*
G01X916569D01*
G02X916894Y962358I0J-400D01*
G03X918752Y958735I1858J-1335D01*
G01X943752D01*
G03X945609Y962358I0J2288D01*
G02X945934Y962992I325J233D01*
G01X961569D01*
G02X961894Y962358I0J-400D01*
G03X963752Y958735I1858J-1335D01*
G01X1158752D01*
G03X1160609Y962358I0J2288D01*
G02X1160934Y962992I325J233D01*
G01X1165354D01*
Y961328D01*
G02X1164720Y961003I-400J0D01*
G03X1161098Y959145I-1335J-1858D01*
G01Y904145D01*
G03X1164720Y902287I2288J0D01*
G02X1165354Y901963I233J-325D01*
G01Y894611D01*
G02X1164720Y894286I-400J0D01*
G03X1162740Y894623I-1335J-1858D01*
G02X1162227Y895009I-113J384D01*
G03X1160472Y891708I-4038J30D01*
G02X1161098Y891378I226J-330D01*
G01Y887428D01*
G03X1164720Y885570I2288J0D01*
G02X1165354Y885245I233J-325D01*
G01Y880837D01*
G02X1164720Y880513I-400J0D01*
G03X1161098Y878655I-1335J-1858D01*
G01Y878099D01*
X1160826D01*
X1160770Y878145D01*
G03X1161055Y872194I-2581J-3106D01*
G02X1161643Y872172I284J-282D01*
G03X1164720Y871797I1742J1483D01*
G02X1165354Y871472I233J-325D01*
G01Y864611D01*
G02X1164720Y864286I-400J0D01*
G03X1162740Y864623I-1335J-1858D01*
G02X1162227Y865009I-113J384D01*
G03X1160472Y861708I-4038J30D01*
G02X1161098Y861378I226J-330D01*
G01Y858700D01*
G02X1160472Y858370I-400J0D01*
G03Y851708I-2283J-3331D01*
G02X1161098Y851378I226J-330D01*
G01Y848700D01*
G02X1160472Y848370I-400J0D01*
G03Y841708I-2283J-3331D01*
G02X1161098Y841378I226J-330D01*
G01Y838700D01*
G02X1160472Y838370I-400J0D01*
G03Y831708I-2283J-3331D01*
G02X1161098Y831378I226J-330D01*
G01Y828700D01*
G02X1160472Y828370I-400J0D01*
G03X1162224Y824868I-2283J-3331D01*
G02X1162737Y825234I400J-17D01*
G03X1164720Y825570I649J2194D01*
G02X1165354Y825245I233J-325D01*
G01Y822359D01*
G02X1164720Y822035I-400J0D01*
G03X1161098Y820177I-1335J-1858D01*
G01Y815177D01*
G03X1164720Y813319I2288J0D01*
G02X1165354Y812994I233J-325D01*
G01Y809449D01*
X1162272D01*
G02X1161947Y810082I0J400D01*
G03X1160089Y813705I-1858J1335D01*
G01X1075089D01*
G03X1073480Y809791I0J-2288D01*
G01X1073539Y809732D01*
Y809449D01*
X1073190D01*
X1073130Y809529D01*
G03X1069411Y809449I-1831J-1373D01*
G01X1043770D01*
G02X1043495Y810139I0J400D01*
G03X1041924Y814090I-1572J1663D01*
G01X1021924D01*
G03X1020352Y810139I0J-2288D01*
G02X1020077Y809449I-275J-291D01*
G01X1017849D01*
G02X1017594Y810157I0J400D01*
G37*
G36*
G01X1063744Y555319D02*
X1063602Y555461D01*
X1063601Y555461D01*
G03X1060365Y552226I-1633J-1603D01*
G01X1060366Y552225D01*
X1060508Y552083D01*
X1056575Y548150D01*
X1048696D01*
G02X1048393Y548809I0J400D01*
G03X1046654Y552584I-1739J1487D01*
G01X1041654D01*
G03X1039915Y548809I0J-2288D01*
G02X1039611Y548150I-304J-260D01*
G01X1008976D01*
X1002283Y541457D01*
X1000118D01*
X997396Y544179D01*
X997379Y545530D01*
X1000403Y548374D01*
X1000531Y548302D01*
G03X1003712Y551295I1123J1994D01*
G01X1003648Y551428D01*
X1008743Y556220D01*
X1024778D01*
G03X1026726Y555133I1948J1200D01*
G01X1036726D01*
G03X1038930Y556807I0J2288D01*
G01X1038944Y556857D01*
X1044764Y562677D01*
X1050042D01*
G03X1053669Y565394I2005J1102D01*
G01X1053528Y565535D01*
X1072874Y584882D01*
X1075866D01*
X1077598Y583150D01*
Y580709D01*
X1065000Y568110D01*
Y556575D01*
X1063744Y555319D01*
G37*
%LPC*%
G75*
G36*
G01X1092244Y537416D02*
G02Y541992I0J2288D01*
G01X1107244D01*
G02Y537416I0J-2288D01*
G01X1092244D01*
G37*
G36*
G01X1055251Y530292D02*
G02Y534867I0J2288D01*
G01X1065251D01*
G02Y530292I0J-2288D01*
G01X1055251D01*
G37*
G36*
G01X1084923Y520590D02*
G02Y525166I0J2288D01*
G01X1099923D01*
G02Y520590I0J-2288D01*
G01X1084923D01*
G37*
G36*
G01X1083369Y513466D02*
G02Y518041I0J2288D01*
G01X1098369D01*
G02Y513466I0J-2288D01*
G01X1083369D01*
G37*
G36*
G01X1129647Y561244D02*
G03X1129215Y560722I-53J-396D01*
G02X1127346Y562271I-2172J-719D01*
G03X1127779Y562793I53J396D01*
G02X1127663Y563512I2172J719D01*
G01Y658512D01*
G02X1132239I2288J0D01*
G01Y563512D01*
G02X1129647Y561244I-2288J0D01*
G37*
G36*
G01X1115299Y488071D02*
G02X1112989Y485783I-2288J0D01*
G01Y480319D01*
G02X1112201Y479531I-788J0D01*
G01X1106697D01*
G02X1105909Y480319I0J788D01*
G01Y485823D01*
G02X1106697Y486611I788J0D01*
G01X1110541D01*
G03X1110909Y487169I0J400D01*
G02X1110723Y488071I2102J902D01*
G01Y508071D01*
G02X1115299I2288J0D01*
G01Y488071D01*
G37*
G36*
G01X1136049Y466222D02*
G03X1135650Y465669I-30J-399D01*
G02X1133329Y468561I-6201J-2598D01*
G03X1133956Y468831I231J327D01*
G02X1136049Y466222I2265J-327D01*
G37*
G36*
G01X1131437Y663253D02*
G02X1130585Y665306I-2274J259D01*
G03X1131230Y665574I248J313D01*
G02X1135262Y666780I2274J-259D01*
G03X1135969Y667036I307J256D01*
G01Y673607D01*
G02X1140544I2288J0D01*
G01Y664001D01*
G02X1135969I-2288J0D01*
G01Y664485D01*
X1135640D01*
X1135587Y664368D01*
G02X1132083Y663521I-2083J947D01*
G03X1131437Y663253I-248J-313D01*
G37*
G36*
G01X1137361Y560641D02*
G02X1135614Y561011I-1309J-1876D01*
G03X1135766Y561731I-76J393D01*
G02X1134788Y563607I1309J1876D01*
G01Y583607D01*
G02X1136180Y585713I2288J0D01*
G03X1136170Y586453I-156J368D01*
G02X1137903Y586477I837J2129D01*
G03X1137913Y585737I156J-368D01*
G02X1139363Y583607I-838J-2129D01*
G01Y563607D01*
G02X1137514Y561362I-2288J0D01*
G03X1137361Y560641I76J-393D01*
G37*
G36*
G01X1159154Y499073D02*
X1119153D01*
Y526040D01*
G03X1118423Y526266I-400J0D01*
G02Y528853I-1887J1294D01*
G03X1119153Y529079I330J226D01*
G01Y537570D01*
G03X1118499Y537879I-400J0D01*
G02X1116341Y537470I-1453J1768D01*
G03X1115854Y536924I-123J-381D01*
G02X1112931Y533848I-2083J-946D01*
G03X1112408Y533343I-147J-372D01*
G02X1110251Y530292I-2157J-763D01*
G01X1075251D01*
G02Y534867I0J2288D01*
G01X1110251D01*
G02X1111090Y534708I0J-2288D01*
G03X1111613Y535214I147J372D01*
G02X1114475Y538154I2157J763D01*
G03X1114963Y538700I123J381D01*
G02X1119330Y539500I2083J946D01*
G03X1119729Y539075I399J-26D01*
G01X1159154D01*
Y499073D01*
G37*
G36*
G01X1095590Y465807D02*
G02X1093899Y468110I-6141J-2736D01*
G03X1094564Y468424I265J300D01*
G02X1096089Y466346I2287J80D01*
G03X1095590Y465807I-133J-377D01*
G37*
G36*
G01X986726Y555133D02*
G02Y559708I0J2288D01*
G01X996726D01*
G02Y555133I0J-2288D01*
G01X986726D01*
G37*
G36*
G01X901726D02*
G02Y559708I0J2288D01*
G01X976726D01*
G02Y555133I0J-2288D01*
G01X901726D01*
G37*
G36*
G01X876654Y548008D02*
G02Y552584I0J2288D01*
G01X891654D01*
G02Y548008I0J-2288D01*
G01X876654D01*
G37*
G36*
G01X906941Y531786D02*
G02Y536362I0J2288D01*
G01X931941D01*
G02Y531786I0J-2288D01*
G01X906941D01*
G37*
G36*
G01X903343Y524662D02*
G02Y529237I0J2288D01*
G01X918343D01*
G02Y524662I0J-2288D01*
G01X903343D01*
G37*
G36*
G01X907221Y491786D02*
G02Y496362I0J2288D01*
G01X937221D01*
G02Y491786I0J-2288D01*
G01X907221D01*
G37*
G36*
G01X863337D02*
G02Y496362I0J2288D01*
G01X893337D01*
G02Y491786I0J-2288D01*
G01X863337D01*
G37*
G36*
G01X908937Y484662D02*
G02Y489237I0J2288D01*
G01X933937D01*
G02Y484662I0J-2288D01*
G01X908937D01*
G37*
G36*
G01X862123Y480398D02*
G02X861335Y479609I-788J0D01*
G01X855831D01*
G02X855043Y480398I0J788D01*
G01Y485902D01*
G02X855831Y486690I788J0D01*
G01X860365D01*
G03X860765Y487069I0J400D01*
G02X862601Y484706I2285J-119D01*
G03X862123Y484314I-78J-392D01*
G01Y480398D01*
G37*
G36*
G01X951126Y488071D02*
G02X948816Y485783I-2288J0D01*
G01Y480319D01*
G02X948028Y479531I-788J0D01*
G01X942524D01*
G02X941735Y480319I0J788D01*
G01Y485823D01*
G02X942524Y486611I788J0D01*
G01X946368D01*
G03X946735Y487169I0J400D01*
G02X946550Y488071I2102J902D01*
G01Y513071D01*
G02X951126I2288J0D01*
G01Y488071D01*
G37*
G36*
G01X906949Y593024D02*
G02X905498Y595108I-2288J-46D01*
G03X906035Y595568I146J372D01*
G02X907566Y593368I3453J771D01*
G03X906949Y593024I-217J-336D01*
G37*
G36*
G01X891726Y555133D02*
X876726D01*
G02Y559708I0J2288D01*
G01X891726D01*
G02X891951Y559697I1J-2288D01*
G03X892115Y560034I19J199D01*
G02X891482Y561614I1655J1580D01*
G01Y562159D01*
G03X890763Y562401I-400J0D01*
G02Y565158I-1826J1379D01*
G03X891482Y565400I319J241D01*
G01Y591614D01*
G02X896058I2288J0D01*
G01Y561614D01*
G02X893922Y559331I-2288J0D01*
G03X893618Y558707I27J-399D01*
G02X891726Y555133I-1892J-1287D01*
G37*
G36*
G01X1003575Y532370D02*
G02X1001678Y532404I-986J-2065D01*
G03X1001691Y533132I-159J367D01*
G02X1003589Y533098I986J2065D01*
G03X1003575Y532370I159J-367D01*
G37*
G36*
G01X871952Y484237D02*
G02X870196Y486301I-3369J-1087D01*
G03X870776Y486700I182J356D01*
G02X873050Y489237I2274J249D01*
G01X893050D01*
G02Y484662I0J-2288D01*
G01X873050D01*
G02X872439Y484745I0J2288D01*
G03X871952Y484237I-107J-385D01*
G37*
G36*
G01X1055256Y653012D02*
X1066812Y641457D01*
Y624685D01*
G02X1061298I-2757J0D01*
G01Y639173D01*
X1051358Y649114D01*
G02X1055256Y653012I1949J1949D01*
G37*
G36*
G01X1099343Y745550D02*
G03X1098955Y744994I-20J-399D01*
G02X1096966Y746380I-2104J-899D01*
G03X1097354Y746937I20J399D01*
G02X1099343Y745550I2104J899D01*
G37*
G36*
G01X915621Y759769D02*
G02Y764344I0J2288D01*
G01X945621D01*
G02Y759769I0J-2288D01*
G01X915621D01*
G37*
G36*
G01X988628Y931764D02*
G03X988597Y932357I-283J283D01*
G02X991005Y932059I1442J1776D01*
G01Y931411D01*
X986660Y927066D01*
X930328D01*
X928424Y928971D01*
X928294Y928906D01*
G02X929787Y930338I-1601J3162D01*
G01X931128Y928997D01*
X933633D01*
G03X933927Y929668I0J400D01*
G02X939144I2608J2399D01*
G03X939438Y928997I294J-271D01*
G01X985860D01*
X988628Y931764D01*
G37*
G54D26*
X1137076Y626107D03*
G54D40*
X1137838Y935929D03*
G54D32*
X1023997Y493707D03*
X900894Y542190D03*
X893770Y539114D03*
X910668Y805893D03*
X910589Y774673D03*
G54D36*
X910983Y819299D03*
X910904Y788078D03*
X909493Y866312D03*
G54D27*
X1105887Y499859D03*
X941713Y506269D03*
G54D38*
X926693Y939941D03*
X936535D03*
G54D34*
X855020Y501949D03*
G54D37*
X990030Y910014D03*
G54D28*
X840945Y448819D03*
Y488189D03*
X860630Y468504D03*
X880315Y448819D03*
X900000Y468504D03*
X919685Y448819D03*
X939370Y468504D03*
X959055Y448819D03*
X998425D03*
X1018110Y468504D03*
X1037795Y448819D03*
X1040237Y506463D03*
X1041909Y513300D03*
X1045237Y506478D03*
X1045361Y516918D03*
X1049285Y509412D03*
X1052188Y513483D03*
X1052198Y518483D03*
Y528483D03*
X1057480Y468504D03*
Y507874D03*
X1075315Y548937D03*
X1077165Y448819D03*
Y488189D03*
Y527559D03*
X1082126Y558268D03*
X1096850Y507874D03*
Y547244D03*
X1103040Y513969D03*
X1104871Y522163D03*
X1105433Y705551D03*
X1106457Y682992D03*
X1106772Y674291D03*
X1108432Y518652D03*
X1111462Y543783D03*
X1111967Y515117D03*
X1115824Y548618D03*
X1116535Y448819D03*
Y566930D03*
Y606300D03*
Y645670D03*
X1119911Y552429D03*
X1120960Y543209D03*
X1123534Y556228D03*
X1124974Y546658D03*
X1128650Y550537D03*
X1132598Y554625D03*
X1138178Y678607D03*
X1142008Y688228D03*
X1155906Y448819D03*
Y488189D03*
Y566930D03*
Y606300D03*
Y645670D03*
Y685040D03*
Y724410D03*
Y763780D03*
X840945Y566930D03*
Y606300D03*
X844055Y584961D03*
X871654Y553858D03*
X873504Y629724D03*
X878701Y607913D03*
X894973Y531761D03*
X898508Y528226D03*
X900000Y507874D03*
Y625985D03*
X900894Y589690D03*
X901996Y534813D03*
X919685Y566930D03*
X936147Y531370D03*
X938470Y484839D03*
X939370Y586615D03*
X940236Y528493D03*
X959055Y488189D03*
Y527559D03*
Y566930D03*
Y606300D03*
X978740Y507874D03*
Y625985D03*
X996417Y604567D03*
X998425Y488189D03*
Y566930D03*
X1010787Y509882D03*
X1018110Y586615D03*
X1018583Y537953D03*
X1024685Y536339D03*
X1027469Y515737D03*
X1031121Y493071D03*
X1047205Y574173D03*
X1087323Y674094D03*
X900000Y665355D03*
X978740D03*
X998425Y685040D03*
X1018110Y625985D03*
Y665355D03*
X1037795Y724410D03*
X1042126Y695276D03*
X1060000Y680787D03*
X1060276Y686575D03*
X1073268Y672913D03*
Y679213D03*
X1077165Y724410D03*
X1078425Y646300D03*
X980717Y817120D03*
X984233Y806674D03*
X985456Y815526D03*
X988991Y811991D03*
X887244Y941654D03*
X970906Y934134D03*
X1017486Y931170D03*
X1023774D03*
X1038346Y907008D03*
X1044882Y852598D03*
X1104409Y907008D03*
G54D31*
X838583Y463150D03*
X878583D03*
X925276Y463071D03*
X965276D03*
X1007559D03*
X1047559D03*
G54D33*
X900894Y572190D03*
X862145Y506430D03*
G54D35*
X1029764Y673350D03*
Y692950D03*
G54D39*
X907992Y950768D03*
X955236D03*
G54D29*
X1147840Y547189D03*
X886575Y622520D03*
X940354Y668661D03*
G54D30*
X1119449Y483071D03*
X955276D03*
%LPD*%
G75*
G54D10*
X507791Y449393D03*
X507718Y942642D03*
X532548Y753188D03*
Y780788D03*
X563948Y753188D03*
Y780788D03*
X1139154Y519074D03*
X1137838Y935929D03*
G54D11*
X517059Y873287D03*
X603059D03*
G54D20*
X868583Y483150D03*
X955276Y483071D03*
X1037559D03*
X1119449D03*
G54D12*
X518748Y715807D03*
Y810295D03*
X585374Y668327D03*
X577748Y715807D03*
Y810295D03*
X605059Y668327D03*
X639271Y766574D03*
X658871D03*
X748523Y578150D03*
X768209D03*
X809715Y884388D03*
X801417Y874428D03*
X867210Y910951D03*
X886575Y622520D03*
X909488Y596339D03*
X921024Y717480D03*
X940354Y668661D03*
X1147840Y547189D03*
G54D21*
X936535Y932067D03*
X926693D03*
Y939941D03*
X936535D03*
G54D22*
X1029764Y673350D03*
Y692950D03*
G54D13*
X530433Y841791D03*
X567933D03*
X648386Y656811D03*
X648228Y682795D03*
X713386Y656811D03*
X713228Y682795D03*
G54D23*
G01X988268Y825000D02*
X991850Y821417D01*
G01X988150Y825472D02*
Y826220D01*
G01X991850Y821417D02*
X1092244D01*
X1097984Y827157D01*
Y915205D01*
X1095630Y917559D01*
G54D14*
X554547Y936122D03*
X594547D03*
G54D24*
G01X826929Y864764D02*
X811081D01*
X801417Y874428D01*
G01X891563Y864776D02*
X887894D01*
X887883Y864764D01*
X826929D01*
G01X845118Y872244D02*
X826181D01*
G01X884872Y674340D02*
Y692883D01*
X880787Y696969D01*
G01X1064055Y624685D02*
Y640315D01*
X1053307Y651063D01*
G54D15*
X565197Y682480D03*
X646457Y842052D03*
Y837052D03*
Y832052D03*
X650118Y828626D03*
X654094Y825118D03*
X646457Y862052D03*
Y857052D03*
Y852052D03*
Y847052D03*
Y887052D03*
Y882052D03*
Y877052D03*
Y872052D03*
Y867052D03*
Y912052D03*
Y907052D03*
Y902052D03*
Y897052D03*
Y892052D03*
Y932052D03*
Y927052D03*
Y922052D03*
Y917052D03*
Y957052D03*
Y952052D03*
Y947052D03*
Y942052D03*
Y937052D03*
X654495Y961022D03*
X649495Y961022D03*
X661063Y817563D03*
X665039Y814059D03*
X670512Y813981D03*
X675591Y813784D03*
X657520Y820989D03*
X679495Y961017D03*
X674495Y961018D03*
X669495Y961019D03*
X664495Y961020D03*
X659495Y961021D03*
X681349Y814016D03*
X686939Y813701D03*
X692333Y813898D03*
X698396Y814016D03*
X699495Y961014D03*
X694495Y961015D03*
X689495Y961016D03*
X684495Y961017D03*
X723228Y616535D03*
X703790Y814331D03*
X708790D03*
X713790D03*
X718790D03*
X723790D03*
X715551Y927953D03*
X724495Y961010D03*
X719495Y961011D03*
X714495Y961011D03*
X709495Y961012D03*
X704495Y961013D03*
X730483Y665472D03*
X728790Y814331D03*
X733790D03*
X739331Y814268D03*
X744451Y814370D03*
X749451D03*
X727677Y927953D03*
X749495Y961006D03*
X744495Y961007D03*
X739495Y961007D03*
X734495Y961008D03*
X729495Y961009D03*
X758268Y616929D03*
X754724Y643701D03*
X771816Y643341D03*
X771811Y676535D03*
X755354Y731614D03*
X770239Y791181D03*
X754451Y814370D03*
X759451D03*
X764451D03*
X769806Y801496D03*
X769495Y961002D03*
X764495Y961003D03*
X759495Y961004D03*
X754495Y961005D03*
X780591Y642126D03*
X774884Y791339D03*
X779884D03*
X784884D03*
X789884D03*
X794884D03*
X785472Y845945D03*
X794567Y849331D03*
X777795Y927953D03*
X794495Y960998D03*
X789495Y960999D03*
X784495Y961000D03*
X779495Y961001D03*
X774495Y961002D03*
X799409Y624213D03*
X799173Y636890D03*
X800906Y642835D03*
X801457Y763307D03*
X799884Y791339D03*
X804884D03*
X809884D03*
X814884D03*
X815394Y796313D03*
Y801313D03*
Y806313D03*
Y811313D03*
Y816313D03*
Y821313D03*
Y826313D03*
Y831313D03*
Y836313D03*
Y841313D03*
Y846313D03*
X819495Y960994D03*
X814495Y960995D03*
X809495Y960996D03*
X804495Y960996D03*
X799495Y960997D03*
X823228Y435787D03*
Y431103D03*
X828228D03*
X833228D03*
X838228D03*
X843228D03*
X823228Y445445D03*
Y440445D03*
Y465445D03*
Y460445D03*
Y455445D03*
Y450445D03*
X840945Y448819D03*
X823228Y490445D03*
Y485445D03*
Y480445D03*
Y475445D03*
Y470445D03*
X840945Y488189D03*
X823228Y515445D03*
Y510445D03*
Y505445D03*
Y500445D03*
Y495445D03*
Y535445D03*
Y530445D03*
Y525445D03*
Y520445D03*
X840945Y527559D03*
X838504Y535787D03*
X823228Y560445D03*
Y555445D03*
Y550445D03*
Y545445D03*
Y540445D03*
Y585445D03*
Y580445D03*
Y575445D03*
Y570445D03*
Y565445D03*
X840945Y566930D03*
X828898Y584961D03*
X823228Y605445D03*
Y600445D03*
Y595445D03*
Y590445D03*
X840945Y606300D03*
X823228Y630445D03*
Y625445D03*
Y620445D03*
Y615445D03*
Y610445D03*
Y655445D03*
Y650445D03*
Y645445D03*
Y640445D03*
Y635445D03*
X840945Y645670D03*
X823228Y675445D03*
Y670445D03*
Y665445D03*
Y660445D03*
Y700445D03*
Y695445D03*
Y690445D03*
Y685445D03*
Y680445D03*
X840945Y685040D03*
X832598Y696969D03*
X823228Y725445D03*
Y720445D03*
Y715445D03*
Y710445D03*
Y705445D03*
X840945Y724410D03*
X823228Y745445D03*
Y740445D03*
Y735445D03*
Y730445D03*
Y770445D03*
Y765445D03*
Y760445D03*
Y755445D03*
Y750445D03*
X840945Y763780D03*
X823228Y795445D03*
Y790445D03*
Y785445D03*
Y780445D03*
Y775445D03*
Y815445D03*
Y810445D03*
Y805445D03*
Y800445D03*
X840945Y803150D03*
X832296Y810010D03*
X828359D03*
X832296Y805286D03*
X828359D03*
X832296Y800561D03*
X828359D03*
X823228Y840445D03*
X825984Y825591D03*
X823228Y850445D03*
Y845445D03*
X826929Y864764D03*
X826181Y872244D03*
X839495Y960991D03*
X834495Y960992D03*
X829495Y960993D03*
X824495Y960993D03*
X848228Y431103D03*
X853228D03*
X858228D03*
X863228D03*
X860630Y468504D03*
X863050Y486950D03*
X855020Y489449D03*
X863337Y494074D03*
X862145Y498930D03*
Y503930D03*
Y508930D03*
Y513930D03*
X855020Y514449D03*
Y509449D03*
Y504449D03*
Y499449D03*
Y494449D03*
X853268Y543307D03*
X844055Y584961D03*
X860630Y665355D03*
X857480Y672402D03*
X853819Y676969D03*
X861929Y677126D03*
X866102Y681535D03*
X857992Y681496D03*
X860630Y704725D03*
Y744095D03*
Y783465D03*
X853377Y810404D03*
X849440D03*
X853377Y805679D03*
X849440D03*
X853377Y800955D03*
X849440D03*
X848071Y825984D03*
X860630Y822835D03*
X845118Y872244D03*
X864495Y960987D03*
X859495Y960987D03*
X854495Y960988D03*
X849495Y960989D03*
X844495Y960990D03*
X868228Y431103D03*
X873228D03*
X878228D03*
X883228D03*
X888228D03*
X880315Y448819D03*
X873050Y486950D03*
X878050D03*
X883050D03*
X888050D03*
X888337Y494074D03*
X883337D03*
X878337D03*
X873337D03*
X868337D03*
X876726Y557420D03*
X886726D03*
X881726D03*
X886654Y550296D03*
X881654D03*
X876654D03*
X871654Y553858D03*
X888937Y563780D03*
X878701Y607913D03*
X873504Y629724D03*
X886417Y653701D03*
X886654Y648110D03*
X874803Y658307D03*
X880984Y658386D03*
X884872Y674340D03*
X880315Y685040D03*
X880787Y696969D03*
X880315Y724410D03*
Y763780D03*
Y803150D03*
X874425Y810277D03*
X870488D03*
X874425Y805553D03*
X870488D03*
X874425Y800828D03*
X870488D03*
X869211Y826024D03*
X885918Y877357D03*
X887244Y941654D03*
X884725Y958059D03*
X884727Y953059D03*
X884729Y948059D03*
X878865Y943543D03*
X878863Y948543D03*
X878861Y953543D03*
X878859Y958543D03*
X888752Y961023D03*
X874495Y960985D03*
X869495Y960986D03*
X893228Y431103D03*
X898228D03*
X903228D03*
X908228D03*
X913228D03*
X900000Y468504D03*
X893050Y486950D03*
X908937D03*
X893337Y494074D03*
X912221D03*
X907221D03*
X900000Y507874D03*
X913343Y526950D03*
X908343D03*
X903343D03*
X898508Y528226D03*
X894973Y531761D03*
X893770Y536614D03*
X911941Y534074D03*
X906941D03*
X901996Y534813D03*
X900894Y539690D03*
X893770Y541614D03*
Y561614D03*
X901726Y557420D03*
X900894Y544690D03*
X906726Y557420D03*
X891726D03*
X911726D03*
X911654Y550296D03*
X906654D03*
X901654D03*
X891654D03*
X893770Y566614D03*
Y571614D03*
Y576614D03*
Y581614D03*
X900894Y574690D03*
Y579690D03*
Y564690D03*
Y569690D03*
Y589690D03*
X904661Y592979D03*
X893770Y586614D03*
Y591614D03*
X900000Y625985D03*
X891457Y651614D03*
X900000Y665355D03*
X891417Y658110D03*
X900000Y704725D03*
Y744095D03*
X910431Y762175D03*
X910581Y766888D03*
X900618Y769963D03*
Y764963D03*
X910264Y753074D03*
X904909Y753152D03*
X900618Y754963D03*
Y759963D03*
X910589Y772173D03*
X900618Y774963D03*
X900933Y780869D03*
Y785869D03*
Y790869D03*
Y795869D03*
X910904Y793078D03*
Y788078D03*
Y783078D03*
X910589Y777173D03*
X910472Y798740D03*
X900933Y800869D03*
Y805869D03*
Y810869D03*
Y815869D03*
X910983Y819299D03*
Y814299D03*
X910668Y808393D03*
Y803393D03*
X892397Y801168D03*
X896334D03*
X892397Y805893D03*
X896334D03*
X892397Y810617D03*
X896334D03*
X910039Y841772D03*
X900933Y825869D03*
Y820869D03*
X910983Y824299D03*
X909178Y850406D03*
X909493Y861312D03*
X909178Y855406D03*
X909493Y866312D03*
X891563Y864776D03*
X899215Y881893D03*
X908122Y881744D03*
X909493Y871312D03*
X896824Y877042D03*
X906824D03*
X901824D03*
X890918Y877357D03*
X894202Y928554D03*
X898752Y961023D03*
X893752D03*
X918228Y431103D03*
X923228D03*
X928228D03*
X933228D03*
X919685Y448819D03*
X913937Y486950D03*
X918937D03*
X923937D03*
X928937D03*
X933937D03*
X932221Y494074D03*
X927221D03*
X922221D03*
X917221D03*
X918343Y526950D03*
X926941Y534074D03*
X931941D03*
X921941D03*
X916941D03*
X936147Y531370D03*
X921726Y557420D03*
X926726D03*
X931726D03*
X936726D03*
X916726D03*
X936654Y550296D03*
X931654D03*
X926654D03*
X921654D03*
X916654D03*
X919685Y566930D03*
X927195Y653888D03*
X917343Y711890D03*
X935411Y720767D03*
X930411D03*
X935224Y713643D03*
X930324Y712648D03*
X926788Y709113D03*
X919685Y724410D03*
X915076Y753256D03*
X935076D03*
X930076D03*
X925076D03*
X920076D03*
X915621Y762057D03*
X920621D03*
X925621D03*
X930621D03*
X935621D03*
X916915Y899503D03*
X933752Y961023D03*
X928752D03*
X923752D03*
X918752D03*
X938228Y431103D03*
X943228D03*
X948228D03*
X953228D03*
X958228D03*
X939370Y468504D03*
X959055Y448819D03*
X948838Y488071D03*
X938470Y484839D03*
X959055Y488189D03*
X948838Y493071D03*
Y498071D03*
Y503071D03*
Y508071D03*
Y513071D03*
X941713Y516269D03*
Y511269D03*
Y506269D03*
Y501269D03*
Y496269D03*
X937221Y494074D03*
X940236Y528493D03*
X959055Y527559D03*
X941726Y557420D03*
X946726D03*
X951726D03*
X956726D03*
X956654Y550296D03*
X951654D03*
X946654D03*
X941654D03*
X959055Y566930D03*
X952756Y577520D03*
X959055Y606300D03*
X939370Y586615D03*
X959055Y685040D03*
X945224Y713643D03*
X955062Y714906D03*
X940411Y720767D03*
X945411D03*
X950411D03*
X954158Y724077D03*
X940224Y713643D03*
X950224D03*
X958597Y718442D03*
X939370Y704725D03*
X957693Y727613D03*
X939370Y744095D03*
X945433Y773228D03*
X960076Y753256D03*
X955076D03*
X950076D03*
X945076D03*
X940076D03*
X940621Y762057D03*
X945621D03*
X945433Y780787D03*
X945512Y788465D03*
X945709Y809882D03*
X945866Y844606D03*
X943752Y961023D03*
X938752D03*
X963228Y431103D03*
X968228D03*
X973228D03*
X978228D03*
X983228D03*
X978740Y507874D03*
X961726Y557420D03*
X966726D03*
X971726D03*
X976726D03*
X981654Y550296D03*
X976654D03*
X971654D03*
X966654D03*
X961654D03*
X971811Y604685D03*
X964291Y592677D03*
X978740Y625985D03*
X970334Y678054D03*
X978740Y665355D03*
X975413Y688554D03*
Y698554D03*
Y693554D03*
X968288Y697616D03*
Y702616D03*
Y692616D03*
Y687616D03*
Y682616D03*
X975413Y703554D03*
Y708554D03*
Y713554D03*
X977503Y718095D03*
X981039Y721631D03*
X968288Y707616D03*
Y712616D03*
X968291Y717616D03*
X971091Y721758D03*
X974626Y725294D03*
X965668Y725513D03*
X962133Y721977D03*
X961229Y731148D03*
X964765Y734684D03*
X964824Y739683D03*
Y744683D03*
Y749683D03*
X971948Y748228D03*
X978162Y728829D03*
X981697Y732365D03*
X971948Y743228D03*
Y738228D03*
X971948Y733228D03*
X969204Y729048D03*
X978740Y744095D03*
X964824Y769683D03*
Y764683D03*
Y754683D03*
Y759683D03*
X971948Y753228D03*
Y763228D03*
Y758228D03*
X980717Y817120D03*
X970906Y934134D03*
X978752Y961023D03*
X973752D03*
X968752D03*
X963752D03*
X988228Y431103D03*
X993228D03*
X998228D03*
X1003228D03*
X998425Y448819D03*
Y488189D03*
X1002589Y530306D03*
X1002677Y535197D03*
X986726Y557420D03*
X991726D03*
X996726D03*
X1001654Y550296D03*
X996654D03*
X991654D03*
X986654D03*
X1001024Y544291D03*
X998425Y566930D03*
X996417Y604567D03*
X989369Y666300D03*
X998425Y685040D03*
X984574Y725167D03*
X998425Y724410D03*
X991357Y747586D03*
X991257Y732587D03*
X988110Y728702D03*
X991357Y737586D03*
Y742586D03*
X984233Y736674D03*
Y741674D03*
Y746674D03*
X991357Y762586D03*
Y757586D03*
Y752586D03*
Y767586D03*
Y772586D03*
X984233Y751674D03*
Y756674D03*
Y761674D03*
Y766674D03*
Y771674D03*
X997059Y754131D03*
Y769131D03*
Y764131D03*
Y759131D03*
X991357Y777586D03*
Y782586D03*
X984233Y781674D03*
Y776674D03*
X991357Y792586D03*
Y787586D03*
X997059Y774131D03*
Y779131D03*
Y794131D03*
Y789131D03*
Y784131D03*
X991357Y802586D03*
X984233Y806674D03*
X985456Y815526D03*
X988991Y811991D03*
X991357Y807586D03*
Y797586D03*
X1002123Y804161D03*
X997123D03*
X997059Y799131D03*
X1001136Y811920D03*
X1006136D03*
X996136D03*
X1001811Y839764D03*
X1001969Y849213D03*
X985827Y885827D03*
X990030Y905289D03*
Y910014D03*
X985827Y893701D03*
X991000Y894067D03*
X990039Y934134D03*
X990030Y914738D03*
X1003752Y961023D03*
X998752D03*
X993752D03*
X988752D03*
X983752D03*
X1008228Y431103D03*
X1013228D03*
X1018228D03*
X1023228D03*
X1028228D03*
X1018110Y468504D03*
X1023997Y491207D03*
X1027469Y515737D03*
X1023997Y496207D03*
X1011299Y501850D03*
X1010787Y509882D03*
X1024685Y536339D03*
X1018583Y537953D03*
X1026726Y557420D03*
X1013898Y560472D03*
X1018110Y586615D03*
Y625985D03*
Y665355D03*
X1012057Y695954D03*
X1018110Y744095D03*
Y783465D03*
X1027123Y804161D03*
X1022123D03*
X1017123D03*
X1012123D03*
X1007123D03*
X1016136Y811920D03*
X1011136D03*
X1021924Y811802D03*
X1026924D03*
X1017486Y931170D03*
X1023774D03*
X1028752Y961023D03*
X1023752D03*
X1018752D03*
X1013752D03*
X1008752D03*
X1033228Y431103D03*
X1038228D03*
X1043228D03*
X1048228D03*
X1053228D03*
X1037795Y448819D03*
Y488189D03*
X1041909Y513300D03*
X1036911Y513444D03*
X1031121Y493071D03*
X1035239Y506320D03*
X1040237Y506463D03*
X1045237Y506478D03*
X1049285Y509412D03*
X1052188Y513483D03*
X1045361Y531918D03*
Y516918D03*
X1052198Y518483D03*
Y528483D03*
X1045079Y523780D03*
X1031726Y557420D03*
X1036726D03*
X1046654Y550296D03*
X1041654D03*
X1034843Y545630D03*
X1052047Y563780D03*
X1052126Y568937D03*
X1047205Y574173D03*
X1053307Y651063D03*
X1042126Y695276D03*
X1037795Y724410D03*
Y763780D03*
X1052087Y796181D03*
X1042123Y804161D03*
X1037123D03*
X1032123D03*
X1041924Y811802D03*
X1036924D03*
X1031924D03*
X1046378Y804724D03*
X1044882Y852598D03*
X1036220Y852795D03*
X1038346Y907008D03*
X1036220Y935433D03*
X1031071Y930988D03*
X1048752Y961023D03*
X1043752D03*
X1038752D03*
X1033752D03*
X1058228Y431103D03*
X1063228D03*
X1068228D03*
X1073228D03*
X1057480Y468504D03*
Y507874D03*
X1075251Y532580D03*
X1065251D03*
X1060251D03*
X1055251D03*
X1068228Y558583D03*
X1075315Y548937D03*
X1061969Y553858D03*
X1061299Y586063D03*
X1073996Y581043D03*
X1070866Y597402D03*
X1064055Y624685D03*
X1073268Y679213D03*
Y672913D03*
X1060276Y686575D03*
X1060000Y680787D03*
X1075844Y805551D03*
X1071299Y808156D03*
X1075089Y811417D03*
X1053898Y800906D03*
X1058307Y806614D03*
X1059843Y896457D03*
X1059315Y901170D03*
X1066929Y916929D03*
X1073752Y961023D03*
X1068752D03*
X1063752D03*
X1058752D03*
X1053752D03*
X1078228Y431103D03*
X1083228D03*
X1088228D03*
X1093228D03*
X1098228D03*
X1096850Y468504D03*
X1077165Y448819D03*
Y488189D03*
X1083369Y515754D03*
X1088369D03*
X1093369D03*
X1098369D03*
X1096850Y507874D03*
X1100251Y532580D03*
X1095251D03*
X1090251D03*
X1085251D03*
X1080251D03*
X1092244Y539704D03*
X1097244D03*
X1099923Y522878D03*
X1094923D03*
X1089923D03*
X1084923D03*
X1077165Y527559D03*
X1096850Y547244D03*
X1082126Y558268D03*
X1096850Y625985D03*
X1078425Y646300D03*
X1078150Y651024D03*
X1079449Y679213D03*
X1079173Y673189D03*
X1087323Y674094D03*
X1099685D03*
X1098898Y679764D03*
X1077165Y724410D03*
X1088386Y706732D03*
X1099458Y747836D03*
X1096850Y744095D03*
X1099351Y757835D03*
Y762835D03*
Y752835D03*
X1077165Y763780D03*
X1095844Y805551D03*
X1090844D03*
X1085844D03*
X1080844D03*
X1080089Y811417D03*
X1085089D03*
X1090089D03*
X1095089D03*
X1100089D03*
X1095591Y875906D03*
X1095630Y917559D03*
X1079528Y916535D03*
X1098752Y961023D03*
X1093752D03*
X1088752D03*
X1083752D03*
X1078752D03*
X1103228Y431103D03*
X1108228D03*
X1113228D03*
X1118228D03*
X1123228D03*
X1116535Y448819D03*
X1105887Y489859D03*
X1113011Y488071D03*
X1111967Y515117D03*
X1103040Y513969D03*
X1105887Y509859D03*
Y504859D03*
Y499859D03*
Y494859D03*
X1113011Y493071D03*
Y498071D03*
Y503071D03*
Y508071D03*
X1110251Y532580D03*
X1105251D03*
X1102244Y539704D03*
X1107244D03*
X1113770Y535977D03*
X1117046Y539646D03*
X1108432Y518652D03*
X1104871Y522163D03*
X1116535Y527559D03*
X1120960Y543209D03*
X1111462Y543783D03*
X1115824Y548618D03*
X1119911Y552429D03*
X1123534Y556228D03*
X1116535Y566930D03*
Y606300D03*
X1102283Y597047D03*
X1116535Y645670D03*
X1106772Y674291D03*
X1103268Y678661D03*
X1106457Y682992D03*
X1105433Y705551D03*
X1102756Y734291D03*
X1122756Y735394D03*
X1118150Y735472D03*
X1106476Y763941D03*
Y758941D03*
X1116535Y763780D03*
X1103228Y796260D03*
X1106100Y780604D03*
X1120844Y805551D03*
X1115844D03*
X1110844D03*
X1105844D03*
X1100844D03*
X1105089Y811417D03*
X1110089D03*
X1115089D03*
X1120089D03*
X1104409Y907008D03*
X1118752Y961023D03*
X1113752D03*
X1108752D03*
X1103752D03*
X1128228Y431103D03*
X1133228D03*
X1138228D03*
X1143228D03*
X1136220Y468504D03*
X1128650Y550537D03*
X1136052Y558765D03*
X1124974Y546658D03*
X1132598Y554625D03*
X1127042Y560004D03*
X1137076Y563607D03*
Y583607D03*
Y568607D03*
Y573607D03*
Y578607D03*
X1129951Y563512D03*
Y568512D03*
Y573512D03*
Y578512D03*
Y583512D03*
X1137076Y598607D03*
Y603607D03*
Y608607D03*
Y593607D03*
X1129951Y588512D03*
Y593512D03*
Y598512D03*
Y603512D03*
Y608512D03*
X1137008Y588583D03*
X1137076Y628607D03*
X1129951Y613512D03*
Y618512D03*
Y623512D03*
Y628512D03*
X1137076Y623607D03*
Y613607D03*
Y618607D03*
X1129951Y633512D03*
Y638512D03*
Y643512D03*
Y648512D03*
X1137076Y653607D03*
X1129951Y653512D03*
X1137076Y648607D03*
Y633607D03*
Y643607D03*
Y638607D03*
X1138257Y673607D03*
Y669001D03*
X1137076Y658607D03*
X1138257Y664001D03*
X1129951Y658512D03*
X1129164Y663512D03*
X1138178Y678607D03*
X1133504Y665315D03*
X1142008Y688228D03*
X1138583Y762953D03*
X1136220Y783465D03*
X1144860Y804646D03*
X1139860D03*
X1134860D03*
X1129860D03*
X1124860D03*
X1125089Y811417D03*
X1130089D03*
X1135089D03*
X1140089D03*
X1145089D03*
X1143752Y961023D03*
X1138752D03*
X1133752D03*
X1128752D03*
X1123752D03*
X1148228Y431103D03*
X1153228D03*
X1158228D03*
X1163228D03*
X1163385Y436100D03*
Y441100D03*
Y446100D03*
Y451100D03*
Y456100D03*
Y461100D03*
Y466100D03*
X1155906Y448819D03*
X1163385Y471100D03*
Y476100D03*
Y481100D03*
Y486100D03*
Y491100D03*
X1155906Y488189D03*
X1163385Y496100D03*
Y501100D03*
Y506100D03*
Y511100D03*
Y516100D03*
Y521100D03*
Y526100D03*
Y531100D03*
Y536100D03*
Y541100D03*
Y546100D03*
Y551100D03*
Y556100D03*
Y561100D03*
Y566100D03*
Y571100D03*
Y576100D03*
Y581100D03*
Y586100D03*
X1155906Y566930D03*
X1163385Y591100D03*
Y596100D03*
Y601100D03*
Y606100D03*
X1155906Y606300D03*
X1163385Y611100D03*
Y616100D03*
Y621100D03*
Y626100D03*
Y631100D03*
Y636100D03*
Y641100D03*
Y646100D03*
Y651100D03*
Y656100D03*
X1155906Y645670D03*
X1163385Y661100D03*
Y666100D03*
Y671100D03*
Y676100D03*
Y681100D03*
Y686100D03*
Y691100D03*
Y696100D03*
Y701100D03*
X1155906Y685040D03*
X1163385Y706100D03*
Y711100D03*
Y716100D03*
Y721100D03*
Y726100D03*
X1155906Y724410D03*
X1163385Y731100D03*
Y736100D03*
Y741100D03*
Y746100D03*
Y751100D03*
Y756100D03*
Y761100D03*
Y766100D03*
Y771100D03*
X1155906Y763780D03*
X1163385Y776100D03*
Y781100D03*
Y786100D03*
Y791100D03*
Y796100D03*
Y801100D03*
X1159860Y804646D03*
X1154860D03*
X1149860D03*
X1150089Y811417D03*
X1155089D03*
X1160089D03*
X1163385Y815177D03*
Y837428D03*
Y842428D03*
Y827428D03*
Y832428D03*
Y820177D03*
Y857428D03*
Y862428D03*
Y847428D03*
Y852428D03*
Y887428D03*
Y873655D03*
Y878655D03*
Y892428D03*
Y904145D03*
Y909145D03*
Y914145D03*
Y919145D03*
Y924145D03*
Y929145D03*
Y934145D03*
Y939145D03*
Y944145D03*
Y949145D03*
Y954145D03*
Y959145D03*
X1158752Y961023D03*
X1153752D03*
X1148752D03*
G54D25*
G01X926693Y932067D02*
X930728Y928031D01*
X986260D01*
X990039Y931811D01*
Y934134D01*
G54D16*
X672164Y885217D03*
X679964D03*
X672360Y911024D03*
X680160D03*
X702839Y885217D03*
X702970Y911024D03*
X710639Y885217D03*
X710770Y911024D03*
X733515Y885217D03*
X741315D03*
X733580Y911024D03*
X741380D03*
X769289Y706280D03*
X769368Y731988D03*
X764191Y885217D03*
X771991D03*
X764191Y911024D03*
X771991D03*
X777089Y706280D03*
X777168Y731988D03*
G54D17*
X704291Y766535D03*
X684291D03*
X704291Y826535D03*
X694291Y836535D03*
X684291Y826535D03*
X724291D03*
X714291Y836535D03*
X734291Y766535D03*
X744291Y826535D03*
X734291Y836535D03*
X754291Y766535D03*
Y836535D03*
X1158189Y825039D03*
Y835039D03*
Y845039D03*
Y855039D03*
Y865039D03*
Y875039D03*
Y885039D03*
Y895039D03*
G54D18*
X838583Y463150D03*
X878583D03*
X925276Y463071D03*
X965276D03*
X1007559D03*
X1047559D03*
X1089449D03*
X1129449D03*
G54D19*
X858583Y483150D03*
X945276Y483071D03*
X1027559D03*
X1109449D03*
M02*
